<?xml version="1.0" encoding="UTF-8" standalone="no"?>
<!-- Created with Inkscape (http://www.inkscape.org/) -->

<svg
   xmlns:dc="http://purl.org/dc/elements/1.1/"
   xmlns:cc="http://creativecommons.org/ns#"
   xmlns:rdf="http://www.w3.org/1999/02/22-rdf-syntax-ns#"
   xmlns:svg="http://www.w3.org/2000/svg"
   xmlns="http://www.w3.org/2000/svg"
   xmlns:sodipodi="http://sodipodi.sourceforge.net/DTD/sodipodi-0.dtd"
   xmlns:inkscape="http://www.inkscape.org/namespaces/inkscape"
   width="7.5031648in"
   height="2.6198175in"
   viewBox="0 0 190.58039 66.543364"
   version="1.1"
   id="svg66242"
   inkscape:version="0.92.3 (2405546, 2018-03-11)"
   sodipodi:docname="escape_repertoire.svg">
  <defs
     id="defs66236" />
  <sodipodi:namedview
     id="base"
     pagecolor="#ffffff"
     bordercolor="#666666"
     borderopacity="1.0"
     inkscape:pageopacity="0.0"
     inkscape:pageshadow="2"
     inkscape:zoom="1.979899"
     inkscape:cx="282.01409"
     inkscape:cy="148.66955"
     inkscape:document-units="mm"
     inkscape:current-layer="layer1"
     showgrid="false"
     inkscape:window-width="3200"
     inkscape:window-height="1660"
     inkscape:window-x="0"
     inkscape:window-y="1146"
     inkscape:window-maximized="1"
     inkscape:snap-global="true"
     fit-margin-top="0"
     fit-margin-left="0"
     fit-margin-right="0"
     fit-margin-bottom="0"
     units="in"
     inkscape:snap-page="true" />
  <metadata
     id="metadata66239">
    <rdf:RDF>
      <cc:Work
         rdf:about="">
        <dc:format>image/svg+xml</dc:format>
        <dc:type
           rdf:resource="http://purl.org/dc/dcmitype/StillImage" />
        <dc:title></dc:title>
      </cc:Work>
    </rdf:RDF>
  </metadata>
  <g
     inkscape:label="Layer 1"
     inkscape:groupmode="layer"
     id="layer1"
     transform="translate(-9.7228473,-10.20909)">
    <rect
       style="opacity:1;fill:#fffffe;fill-opacity:1;stroke:none;stroke-width:0;stroke-miterlimit:4;stroke-dasharray:none;stroke-dashoffset:0;stroke-opacity:1"
       id="rect66968"
       width="190.58038"
       height="66.543358"
       x="9.722847"
       y="10.209088" />
    <g
       id="g66954"
       transform="matrix(1.3814292,-0.48275626,0.48275626,1.3814292,21.789891,-186.16436)"
       style="stroke-width:0.68336236">
      <path
         inkscape:connector-curvature="0"
         id="path5541"
         d="m 52.435081,172.46367 c -1.783126,0.97417 -3.616803,2.13145 -5.62274,3.33892 l -0.0011,7.1e-4 -0.0011,7e-4 c -4.249598,2.88616 -8.900833,5.82499 -11.482195,8.66398 -0.870441,0.95931 -1.460418,1.93198 -1.695048,2.88373 -0.234646,0.95174 -0.111837,1.88295 0.438912,2.74654 0.550815,0.8637 1.306162,1.29691 2.229269,1.40539 0.92293,0.10846 2.012714,-0.10325 3.250965,-0.51494 l 5.59e-4,-3.4e-4 c 3.374553,-1.11864 6.37227,-2.73746 9.144752,-4.36584 l 0.0021,0.004 0.04124,-0.0225 -0.0033,-0.005 c 1.226923,-0.7212 2.410295,-1.44386 3.562159,-2.12528 0.991693,-0.59695 1.956205,-1.19442 2.879705,-1.79227 -1.299869,0.77945 -2.639688,1.5897 -4.042507,2.37937 -0.798678,0.47889 -1.610864,0.96779 -2.445503,1.45832 l -0.06735,-0.11626 c -0.01396,0.007 -0.02803,0.0139 -0.04197,0.021 l 0.06891,0.11899 c -1.131478,0.66461 -2.301238,1.32611 -3.51684,1.95358 l -0.249994,-0.4351 c -0.01473,0.006 -0.02942,0.0112 -0.04417,0.0167 l 0.252708,0.43966 c -1.362996,0.70202 -2.783927,1.36035 -4.280261,1.92627 l -0.884911,-1.44785 c -0.02162,-0.005 -0.04286,-0.0105 -0.06422,-0.0157 l 0.904748,1.48023 c -0.409938,0.15439 -0.825094,0.30225 -1.246423,0.44192 -1.231795,0.4096 -2.30969,0.61616 -3.20941,0.51043 -0.864935,-0.10164 -1.565281,-0.48903 -2.096208,-1.26829 l 3.719931,-2.75083 c -0.0073,-0.0138 -0.01523,-0.0275 -0.02219,-0.0414 l -3.72378,2.75354 c -0.01245,-0.0189 -0.02536,-0.0368 -0.03768,-0.0561 -0.53812,-0.8438 -0.65723,-1.7449 -0.427543,-2.67655 0.229687,-0.93164 0.81062,-1.89312 1.674077,-2.84478 0.26863,-0.29543 0.561229,-0.59235 0.872675,-0.8902 l 1.303204,1.831 c 0.0024,-0.0228 0.0058,-0.0456 0.0088,-0.0684 l -1.277974,-1.79489 c 1.033818,-0.98438 2.28552,-1.98072 3.650819,-2.98199 l 0.362096,0.49248 c 0.01113,-0.0109 0.02253,-0.0215 0.03406,-0.0323 l -0.358593,-0.48761 c 1.061626,-0.77745 2.190124,-1.55766 3.340496,-2.33758 l 0.166886,0.23387 c 0.0124,-0.01 0.02488,-0.0188 0.03759,-0.0282 L 43.3731,178.23289 c 1.126956,-0.76372 2.271422,-1.52673 3.391259,-2.28642 l 0.109647,0.16009 c 0.01301,-0.009 0.02608,-0.0175 0.03894,-0.0264 l -0.109654,-0.16009 c 0.01928,-0.0131 0.03911,-0.0262 0.05835,-0.0394 l 0.0024,-0.001 c 1.183667,-0.71253 2.305008,-1.40521 3.392479,-2.05486 0.188433,-0.12725 0.379031,-0.25495 0.566129,-0.38202 0.55094,-0.33163 1.084913,-0.65695 1.612315,-0.97828 z"
         style="color:#000000;font-style:normal;font-variant:normal;font-weight:normal;font-stretch:normal;font-size:medium;line-height:normal;font-family:sans-serif;font-variant-ligatures:normal;font-variant-position:normal;font-variant-caps:normal;font-variant-numeric:normal;font-variant-alternates:normal;font-feature-settings:normal;text-indent:0;text-align:start;text-decoration:none;text-decoration-line:none;text-decoration-style:solid;text-decoration-color:#000000;letter-spacing:normal;word-spacing:normal;text-transform:none;writing-mode:lr-tb;direction:ltr;text-orientation:mixed;dominant-baseline:auto;baseline-shift:baseline;text-anchor:start;white-space:normal;shape-padding:0;clip-rule:nonzero;display:inline;overflow:visible;visibility:visible;opacity:1;isolation:auto;mix-blend-mode:normal;color-interpolation:sRGB;color-interpolation-filters:linearRGB;solid-color:#000000;solid-opacity:1;vector-effect:none;fill:#646464;fill-opacity:1;fill-rule:nonzero;stroke:none;stroke-width:0.03176549;stroke-linecap:butt;stroke-linejoin:miter;stroke-miterlimit:4;stroke-dasharray:none;stroke-dashoffset:0;stroke-opacity:1;color-rendering:auto;image-rendering:auto;shape-rendering:auto;text-rendering:auto;enable-background:accumulate" />
      <path
         inkscape:connector-curvature="0"
         id="path5543"
         style="color:#000000;font-style:normal;font-variant:normal;font-weight:normal;font-stretch:normal;font-size:medium;line-height:normal;font-family:sans-serif;font-variant-ligatures:normal;font-variant-position:normal;font-variant-caps:normal;font-variant-numeric:normal;font-variant-alternates:normal;font-feature-settings:normal;text-indent:0;text-align:start;text-decoration:none;text-decoration-line:none;text-decoration-style:solid;text-decoration-color:#000000;letter-spacing:normal;word-spacing:normal;text-transform:none;writing-mode:lr-tb;direction:ltr;text-orientation:mixed;dominant-baseline:auto;baseline-shift:baseline;text-anchor:start;white-space:normal;shape-padding:0;clip-rule:nonzero;display:inline;overflow:visible;visibility:visible;opacity:1;isolation:auto;mix-blend-mode:normal;color-interpolation:sRGB;color-interpolation-filters:linearRGB;solid-color:#000000;solid-opacity:1;vector-effect:none;fill:#000000;fill-opacity:1;fill-rule:nonzero;stroke:none;stroke-width:0.03176549;stroke-linecap:butt;stroke-linejoin:miter;stroke-miterlimit:4;stroke-dasharray:none;stroke-dashoffset:0;stroke-opacity:1;color-rendering:auto;image-rendering:auto;shape-rendering:auto;text-rendering:auto;enable-background:accumulate"
         d="m 42.552401,184.49376 -2.331602,-3.27461 -0.03833,0.0261 2.330383,3.27388 2.210796,3.61656 0.04043,-0.0228 z m 4.121959,-2.52291 -2.763061,-3.7575 -0.038,0.0266 2.761381,3.75486 2.404489,4.18479 0.04076,-0.0223 z m 3.380679,-2.24937 -2.755801,-3.86064 -0.03925,0.0258 2.755122,3.85959 2.614544,4.51417 0.04127,-0.0226 z m 3.422186,-2.15948 -2.786449,-4.07047 -0.03957,0.0253 2.786651,4.06962 2.785258,4.4831 0.04062,-0.0237 z m 1.150313,-6.36776 -0.04062,0.0237 2.607641,4.13494 2.773517,4.34896 0.0403,-0.0242 -2.773517,-4.34896 z m 3.088643,-1.71654 -0.04062,0.0237 2.432043,3.99774 2.645432,4.24022 0.04062,-0.0237 -2.645432,-4.24023 z m 3.703547,-1.5577 -0.04149,0.0212 1.96383,3.53988 2.439819,3.4809 0.03925,-0.0259 -2.438475,-3.47879 z m 3.395918,-0.95841 -0.04307,0.0186 1.340301,2.86093 1.881816,2.60593 0.03892,-0.0264 -1.879446,-2.60223 z m 5.470081,0.36916 -6.02243,3.56373 -5.77729,3.53836 -5.84713,3.55991 -5.590929,3.66762 -4.528909,2.82713 -4.402178,3.25495 0.02877,0.0368 4.400539,-3.25397 4.527817,-2.82648 5.590928,-3.66761 5.845709,-3.55979 5.777635,-3.53783 6.022085,-3.56426 z m 0.05342,-0.004 c -0.140133,-0.24016 -0.63107,-0.76932 -2.142653,-0.83273 -1.511583,-0.0634 -4.047077,0.3338 -8.302175,1.94215 -2.946466,1.11372 -5.810652,2.98922 -9.151753,5.00039 l -0.0011,7.1e-4 -0.0011,7.1e-4 c -4.2496,2.88615 -8.900808,5.82497 -11.48217,8.66395 -0.870451,0.95931 -1.460423,1.93209 -1.695061,2.88383 -0.234644,0.95174 -0.111822,1.88289 0.438929,2.74648 0.550816,0.8637 1.306148,1.29694 2.229245,1.40542 0.922939,0.10846 2.01278,-0.10318 3.251024,-0.51488 l 5.59e-4,-3.4e-4 c 4.885578,-1.61954 8.981745,-4.28755 12.747229,-6.51498 3.343102,-2.01237 6.389164,-4.03159 8.528543,-6.0461 2.872749,-2.70507 4.333503,-4.76848 5.044587,-6.2141 0.355522,-0.72281 0.523811,-1.29106 0.58657,-1.70881 0.06277,-0.41775 0.02493,-0.682 -0.05069,-0.81161 z m -0.0823,0.0457 c 0.05313,0.091 0.100443,0.34622 0.03939,0.75256 -0.06105,0.40635 -0.225618,0.96628 -0.57785,1.68235 -0.704433,1.43216 -2.15819,3.48813 -5.025208,6.1878 -2.129868,2.00555 -5.171801,4.02332 -8.512679,6.03436 -3.768118,2.229 -7.857573,4.89204 -12.728474,6.50661 -1.231778,0.40961 -2.309753,0.6161 -3.209472,0.51037 -0.899726,-0.10574 -1.621948,-0.51929 -2.160001,-1.36297 -0.538115,-0.84379 -0.65716,-1.74491 -0.427472,-2.67656 0.229688,-0.93165 0.810622,-1.89313 1.674006,-2.84481 2.565073,-2.82107 7.212109,-5.76107 11.462969,-8.64801 l 0.0024,-0.001 c 3.341896,-2.01171 6.202517,-3.88317 9.134209,-4.99129 4.24818,-1.60575 6.773926,-1.99847 8.263942,-1.93597 1.490018,0.0625 1.941174,0.57558 2.064461,0.78687 z" />
      <path
         style="color:#000000;font-style:normal;font-variant:normal;font-weight:normal;font-stretch:normal;font-size:medium;line-height:normal;font-family:sans-serif;font-variant-ligatures:normal;font-variant-position:normal;font-variant-caps:normal;font-variant-numeric:normal;font-variant-alternates:normal;font-feature-settings:normal;text-indent:0;text-align:start;text-decoration:none;text-decoration-line:none;text-decoration-style:solid;text-decoration-color:#000000;letter-spacing:normal;word-spacing:normal;text-transform:none;writing-mode:lr-tb;direction:ltr;text-orientation:mixed;dominant-baseline:auto;baseline-shift:baseline;text-anchor:start;white-space:normal;shape-padding:0;clip-rule:nonzero;display:inline;overflow:visible;visibility:visible;opacity:1;isolation:auto;mix-blend-mode:normal;color-interpolation:sRGB;color-interpolation-filters:linearRGB;solid-color:#000000;solid-opacity:1;vector-effect:none;fill:#828282;fill-opacity:0.98431373;fill-rule:nonzero;stroke:none;stroke-width:0.03176549;stroke-linecap:butt;stroke-linejoin:miter;stroke-miterlimit:4;stroke-dasharray:none;stroke-dashoffset:0;stroke-opacity:1;color-rendering:auto;image-rendering:auto;shape-rendering:auto;text-rendering:auto;enable-background:accumulate"
         d="m 48.408011,174.88775 c -1.783125,0.97418 -3.616803,2.13146 -5.62274,3.33893 l -0.0011,7e-4 -0.0011,7.1e-4 c -4.249599,2.88615 -8.900834,5.82499 -11.482196,8.66397 -0.87044,0.95931 -1.460418,1.93199 -1.695048,2.88374 -0.234647,0.95174 -0.111839,1.88295 0.438911,2.74654 0.550819,0.8637 1.306162,1.29691 2.229269,1.40539 0.922931,0.10846 2.012715,-0.10325 3.250965,-0.51494 l 5.57e-4,-3.3e-4 c 3.374555,-1.11865 6.372273,-2.73747 9.144756,-4.36585 l 0.0021,0.004 0.04124,-0.0225 -0.0033,-0.005 c 1.226923,-0.7212 2.410294,-1.44387 3.562158,-2.12528 0.991693,-0.59695 1.956205,-1.19443 2.879706,-1.79227 -1.29987,0.77945 -2.639689,1.5897 -4.042507,2.37937 -0.798678,0.47888 -1.610865,0.96778 -2.445504,1.45831 l -0.06735,-0.11625 c -0.01404,0.007 -0.02811,0.0139 -0.04197,0.021 l 0.06891,0.11899 c -1.131479,0.66461 -2.301238,1.32611 -3.51684,1.95358 l -0.249994,-0.4351 c -0.01473,0.006 -0.02942,0.0111 -0.0441,0.0167 l 0.252708,0.43966 c -1.362996,0.70202 -2.783924,1.36035 -4.280259,1.92626 L 35.9003,191.41976 c -0.02152,-0.005 -0.04295,-0.0102 -0.06423,-0.0157 l 0.904744,1.48024 c -0.40994,0.1544 -0.825092,0.30225 -1.246422,0.44192 -1.231793,0.40959 -2.309694,0.61617 -3.209407,0.51043 -0.864935,-0.10165 -1.565285,-0.48903 -2.096212,-1.26828 l 3.719934,-2.75084 c -0.0073,-0.0138 -0.01523,-0.0275 -0.02218,-0.0414 l -3.723779,2.75354 c -0.01245,-0.0189 -0.02536,-0.0368 -0.03768,-0.0561 -0.538123,-0.84379 -0.657232,-1.74489 -0.427545,-2.67654 0.229684,-0.93164 0.810616,-1.89312 1.674074,-2.84478 0.26863,-0.29543 0.561229,-0.59235 0.872674,-0.8902 l 1.303205,1.831 c 0.0024,-0.0228 0.0058,-0.0456 0.0088,-0.0684 l -1.277974,-1.79489 c 1.033818,-0.98437 2.28552,-1.98072 3.650819,-2.98199 l 0.362096,0.49248 c 0.01113,-0.0109 0.02253,-0.0215 0.03406,-0.0323 l -0.358593,-0.48761 c 1.061626,-0.77744 2.190125,-1.55766 3.340497,-2.33758 l 0.166886,0.23387 c 0.0124,-0.01 0.02488,-0.0189 0.03759,-0.0282 l -0.165633,-0.2319 c 1.126957,-0.76373 2.271423,-1.52674 3.39126,-2.28643 l 0.109646,0.16009 c 0.01302,-0.009 0.02608,-0.0175 0.03894,-0.0264 l -0.109653,-0.16009 c 0.01928,-0.0131 0.03911,-0.0262 0.05835,-0.0394 l 0.0024,-0.001 c 1.183668,-0.71254 2.305009,-1.40522 3.39248,-2.05487 0.188432,-0.12725 0.379031,-0.25495 0.566129,-0.38202 0.55094,-0.33163 1.084913,-0.65695 1.612315,-0.97828 z"
         id="path5545"
         inkscape:connector-curvature="0" />
      <path
         inkscape:connector-curvature="0"
         id="path5547"
         d="m 44.461797,177.26318 c -1.783132,0.97417 -3.616802,2.13145 -5.622739,3.33892 l -0.0011,7e-4 -0.0011,7.1e-4 c -4.249606,2.88615 -8.900834,5.82499 -11.482197,8.66398 -0.870447,0.9593 -1.460416,1.93198 -1.695055,2.88373 -0.234639,0.95174 -0.11183,1.88295 0.438912,2.74654 0.550818,0.86369 1.306169,1.29691 2.229269,1.40539 0.922938,0.10846 2.012723,-0.10325 3.250965,-0.51495 l 5.57e-4,-3.3e-4 c 3.374554,-1.11864 6.372271,-2.73746 9.144763,-4.36584 l 0.0021,0.004 0.04124,-0.0225 -0.0033,-0.005 c 1.226923,-0.7212 2.410287,-1.44387 3.562158,-2.12528 0.991685,-0.59695 1.956198,-1.19443 2.879698,-1.79228 -1.299869,0.77946 -2.639681,1.58971 -4.042507,2.37938 -0.79867,0.47888 -1.610864,0.96778 -2.445495,1.45832 l -0.06735,-0.11626 c -0.01404,0.007 -0.02811,0.0139 -0.04197,0.021 l 0.06891,0.11899 c -1.131471,0.66461 -2.301231,1.32612 -3.516841,1.95358 l -0.249986,-0.43509 c -0.01473,0.006 -0.02942,0.0111 -0.04418,0.0167 l 0.252699,0.43966 c -1.362989,0.70202 -2.783918,1.36035 -4.280261,1.92626 l -0.884911,-1.44785 c -0.02152,-0.005 -0.04296,-0.0102 -0.06423,-0.0157 l 0.904755,1.48023 c -0.409947,0.15439 -0.825095,0.30226 -1.246433,0.44192 -1.231785,0.4096 -2.309683,0.61617 -3.2094,0.51043 -0.864934,-0.10164 -1.565284,-0.48902 -2.096219,-1.26828 l 3.719934,-2.75084 c -0.0073,-0.0138 -0.01524,-0.0275 -0.02218,-0.0414 l -3.723779,2.75354 c -0.01245,-0.0189 -0.02536,-0.0368 -0.03768,-0.0561 -0.538123,-0.84379 -0.657232,-1.74489 -0.427545,-2.67654 0.229684,-0.93164 0.810617,-1.89312 1.674075,-2.84478 0.268624,-0.29544 0.561222,-0.59236 0.872667,-0.8902 l 1.303206,1.83099 c 0.0024,-0.0228 0.0058,-0.0456 0.0088,-0.0684 l -1.277966,-1.79488 c 1.033811,-0.98438 2.285513,-1.98073 3.650812,-2.982 l 0.362096,0.49248 c 0.01113,-0.0109 0.02253,-0.0215 0.03406,-0.0323 l -0.358593,-0.48761 c 1.061626,-0.77744 2.190125,-1.55766 3.340505,-2.33757 l 0.166878,0.23386 c 0.0124,-0.01 0.02496,-0.0188 0.03759,-0.0282 l -0.165625,-0.2319 c 1.126949,-0.76372 2.271415,-1.52674 3.391252,-2.28643 l 0.109654,0.16009 c 0.01302,-0.009 0.02608,-0.0175 0.03894,-0.0264 l -0.109661,-0.16009 c 0.01928,-0.0131 0.03911,-0.0262 0.05835,-0.0394 l 0.0024,-0.001 c 1.183659,-0.71254 2.305009,-1.40522 3.392472,-2.05487 0.188432,-0.12726 0.379039,-0.25495 0.566137,-0.38202 0.550932,-0.33163 1.084913,-0.65695 1.612315,-0.97828 z"
         style="color:#000000;font-style:normal;font-variant:normal;font-weight:normal;font-stretch:normal;font-size:medium;line-height:normal;font-family:sans-serif;font-variant-ligatures:normal;font-variant-position:normal;font-variant-caps:normal;font-variant-numeric:normal;font-variant-alternates:normal;font-feature-settings:normal;text-indent:0;text-align:start;text-decoration:none;text-decoration-line:none;text-decoration-style:solid;text-decoration-color:#000000;letter-spacing:normal;word-spacing:normal;text-transform:none;writing-mode:lr-tb;direction:ltr;text-orientation:mixed;dominant-baseline:auto;baseline-shift:baseline;text-anchor:start;white-space:normal;shape-padding:0;clip-rule:nonzero;display:inline;overflow:visible;visibility:visible;opacity:1;isolation:auto;mix-blend-mode:normal;color-interpolation:sRGB;color-interpolation-filters:linearRGB;solid-color:#000000;solid-opacity:1;vector-effect:none;fill:#a0a0a0;fill-opacity:0.94509804;fill-rule:nonzero;stroke:none;stroke-width:0.03176549;stroke-linecap:butt;stroke-linejoin:miter;stroke-miterlimit:4;stroke-dasharray:none;stroke-dashoffset:0;stroke-opacity:1;color-rendering:auto;image-rendering:auto;shape-rendering:auto;text-rendering:auto;enable-background:accumulate" />
      <path
         style="color:#000000;font-style:normal;font-variant:normal;font-weight:normal;font-stretch:normal;font-size:medium;line-height:normal;font-family:sans-serif;font-variant-ligatures:normal;font-variant-position:normal;font-variant-caps:normal;font-variant-numeric:normal;font-variant-alternates:normal;font-feature-settings:normal;text-indent:0;text-align:start;text-decoration:none;text-decoration-line:none;text-decoration-style:solid;text-decoration-color:#000000;letter-spacing:normal;word-spacing:normal;text-transform:none;writing-mode:lr-tb;direction:ltr;text-orientation:mixed;dominant-baseline:auto;baseline-shift:baseline;text-anchor:start;white-space:normal;shape-padding:0;clip-rule:nonzero;display:inline;overflow:visible;visibility:visible;opacity:1;isolation:auto;mix-blend-mode:normal;color-interpolation:sRGB;color-interpolation-filters:linearRGB;solid-color:#000000;solid-opacity:1;vector-effect:none;fill:#c8c8c8;fill-opacity:1;fill-rule:nonzero;stroke:none;stroke-width:0.03176549;stroke-linecap:butt;stroke-linejoin:miter;stroke-miterlimit:4;stroke-dasharray:none;stroke-dashoffset:0;stroke-opacity:1;color-rendering:auto;image-rendering:auto;shape-rendering:auto;text-rendering:auto;enable-background:accumulate"
         d="m 40.434728,179.68726 c -1.783133,0.97418 -3.616803,2.13145 -5.622739,3.33892 l -0.0011,7.1e-4 -0.0011,7.1e-4 c -4.249607,2.88615 -8.900836,5.825 -11.482198,8.66398 -0.870448,0.9593 -1.460417,1.93198 -1.695055,2.88373 -0.234639,0.95174 -0.111828,1.88294 0.438915,2.74653 0.550815,0.8637 1.306169,1.29691 2.229269,1.40539 0.922935,0.10847 2.012719,-0.10324 3.250961,-0.51494 l 5.61e-4,-3.3e-4 c 3.374554,-1.11865 6.37227,-2.73746 9.144759,-4.36584 l 0.0022,0.004 0.04125,-0.0226 -0.0034,-0.005 c 1.226923,-0.7212 2.410287,-1.44386 3.562158,-2.12528 0.991686,-0.59695 1.956198,-1.19442 2.879698,-1.79227 -1.299869,0.77945 -2.63968,1.5897 -4.042509,2.37938 -0.798668,0.47888 -1.610863,0.96778 -2.445494,1.45831 l -0.06736,-0.11623 c -0.01406,0.007 -0.02811,0.0139 -0.04197,0.021 l 0.06892,0.11899 c -1.131478,0.66461 -2.301237,1.32611 -3.516847,1.95358 l -0.249987,-0.4351 c -0.01473,0.006 -0.02942,0.0111 -0.0441,0.0168 l 0.2527,0.43965 c -1.36299,0.70203 -2.783918,1.36036 -4.280261,1.92627 l -0.884912,-1.44785 c -0.02152,-0.005 -0.04296,-0.0102 -0.06423,-0.0157 l 0.904756,1.48024 c -0.409945,0.15438 -0.825096,0.30225 -1.24643,0.44191 -1.231789,0.40961 -2.309687,0.61618 -3.209403,0.51044 -0.864935,-0.10164 -1.565282,-0.48903 -2.09622,-1.26828 l 3.719934,-2.75084 c -0.0073,-0.0138 -0.01523,-0.0275 -0.02218,-0.0414 l -3.723783,2.75355 c -0.01237,-0.0189 -0.02536,-0.0368 -0.03768,-0.0561 -0.538123,-0.8438 -0.657232,-1.7449 -0.427545,-2.67654 0.229687,-0.93165 0.81062,-1.89313 1.674078,-2.84479 0.268621,-0.29543 0.561219,-0.59235 0.872664,-0.89019 l 1.303206,1.83099 c 0.0024,-0.0228 0.0058,-0.0456 0.0088,-0.0684 l -1.277966,-1.79489 c 1.03381,-0.98438 2.285513,-1.98073 3.650811,-2.98199 l 0.362097,0.49248 c 0.01114,-0.0109 0.02253,-0.0215 0.03407,-0.0323 l -0.358594,-0.48761 c 1.061627,-0.77744 2.190125,-1.55765 3.340505,-2.33757 l 0.166878,0.23386 c 0.0124,-0.01 0.02496,-0.0188 0.03759,-0.0282 l -0.165625,-0.2319 c 1.12695,-0.76372 2.271415,-1.52674 3.391252,-2.28642 l 0.109655,0.16009 c 0.01302,-0.009 0.02608,-0.0175 0.03894,-0.0264 l -0.109662,-0.16009 c 0.01928,-0.0131 0.03911,-0.0262 0.05835,-0.0394 l 0.0024,-0.001 c 1.183659,-0.71254 2.305009,-1.40522 3.392471,-2.05487 0.188433,-0.12725 0.379039,-0.25494 0.566137,-0.38201 0.550933,-0.33164 1.084913,-0.65696 1.612315,-0.97828 z"
         id="path5549"
         inkscape:connector-curvature="0" />
    </g>
    <g
       id="g66877"
       transform="matrix(1.4633524,0,0,1.4633524,-122.13312,-223.31781)"
       style="stroke-width:0.68336236">
      <path
         inkscape:connector-curvature="0"
         id="path5553"
         d="m 157.63358,169.70449 c -2.35323,0.0218 -4.4807,0.63267 -6.15234,1.43593 -1.27364,0.61201 -2.2831,1.33591 -2.92832,1.9993 -0.32261,0.33169 -0.55391,0.64799 -0.68192,0.93175 -0.128,0.28377 -0.15403,0.54015 -0.0451,0.73908 0.20358,0.37202 0.61916,0.67621 1.15462,0.93798 0.53548,0.26176 1.19314,0.48027 1.8881,0.66954 1.38991,0.37852 2.9306,0.64069 3.92744,0.88706 2.27684,0.56268 3.61145,1.1116 4.38822,1.86414 0.55807,0.54066 0.83429,1.19118 0.97056,2.04254 l -0.0181,0.008 0.0235,0.0524 0.004,-0.002 c 0.0476,0.3153 0.0775,0.65729 0.095,1.03193 -0.33362,1.2771 -0.53076,1.96271 -1.00082,2.44675 -0.47053,0.48454 -1.233,0.78557 -2.71273,1.27596 -1.18887,0.0891 -2.38863,0.11278 -3.50139,0.20655 l -0.0347,-2.1e-4 v 0.003 c -0.94347,0.0809 -1.8236,0.21345 -2.57748,0.48223 -0.8263,0.2946 -1.50287,0.75586 -1.93794,1.4916 -0.43505,0.73575 -0.62676,1.74061 -0.49999,3.11961 0.0597,0.64856 0.45777,1.25382 1.08625,1.78984 0.62849,0.53602 1.48903,1.00583 2.48715,1.38606 1.99621,0.76043 4.54246,1.16323 6.88153,1.00129 l 0.006,-7.9e-4 0.005,-0.002 c 0.27627,-0.0759 0.54577,-0.15383 0.80888,-0.23368 -0.0874,-0.0137 -0.17494,-0.0274 -0.26181,-0.0425 -0.18778,0.0554 -0.37758,0.11004 -0.572,0.1635 -1.82287,0.12558 -3.77687,-0.0969 -5.49001,-0.56336 l 0.0709,-2.42461 c -0.0196,-0.0272 -0.0389,-0.0544 -0.0573,-0.0817 l -0.0729,2.49042 c -0.4439,-0.12273 -0.87201,-0.26105 -1.27605,-0.41496 -0.98877,-0.37667 -1.83872,-0.84137 -2.45263,-1.36495 -0.6139,-0.52359 -0.99057,-1.10352 -1.04662,-1.71306 -0.12539,-1.3638 0.0654,-2.34324 0.48465,-3.05234 0.4193,-0.7091 1.0683,-1.15264 1.87681,-1.4409 0.73502,-0.26206 1.60164,-0.39221 2.53612,-0.47271 l -0.002,2.00799 c 0.0194,-0.0365 0.0391,-0.0723 0.0597,-0.10742 l 0.002,-1.90554 c 1.10096,-0.0921 2.29394,-0.11802 3.48008,-0.20676 l 0.10071,0.25023 c 0.0201,-0.003 0.0405,-0.006 0.0607,-0.008 l -0.10285,-0.25561 c 1.46649,-0.48645 2.24323,-0.78873 2.73788,-1.29809 0.35951,-0.37019 0.56234,-0.84601 0.77352,-1.5628 l 4.2342,0.68546 c 0.008,-0.018 0.0148,-0.0365 0.0222,-0.055 l -4.23932,-0.68629 c 0.0761,-0.26234 0.15392,-0.55528 0.24094,-0.88851 l 0.002,-0.008 -8.3e-4,-0.009 c -0.0181,-0.39179 -0.0499,-0.7504 -0.10178,-1.08202 l 3.86309,-1.64558 c -0.0115,-0.0164 -0.0242,-0.032 -0.036,-0.0482 l -3.83649,1.63545 c -0.10618,-0.64068 -0.29353,-1.17642 -0.6214,-1.63752 l 1.43732,-1.78861 c -0.0198,-0.006 -0.0399,-0.0128 -0.0599,-0.0192 l -1.41346,1.75942 c -0.10103,-0.13636 -0.21355,-0.2668 -0.3417,-0.39095 -0.41151,-0.39868 -0.96836,-0.73715 -1.71873,-1.04829 l 0.1719,-1.14225 c -0.0198,-0.004 -0.0377,-0.008 -0.0577,-0.0122 l -0.17021,1.1319 c -0.70683,-0.28818 -1.58112,-0.55367 -2.668,-0.82228 -0.36017,-0.089 -0.80131,-0.18206 -1.26625,-0.2792 l -0.17213,-1.29478 c -0.0216,-0.0114 -0.0434,-0.023 -0.0645,-0.0346 l 0.17511,1.31652 c -0.81832,-0.1708 -1.73155,-0.35943 -2.59663,-0.59503 -0.69084,-0.18815 -1.34276,-0.40456 -1.86701,-0.66085 -0.50509,-0.24692 -0.88765,-0.5312 -1.08005,-0.85311 l 4.37777,-1.19958 c 0.16149,-0.0223 0.32298,-0.0434 0.48443,-0.0646 0.0172,-0.0215 0.0356,-0.0435 0.0537,-0.0652 -0.18339,0.0239 -0.3667,0.0481 -0.55005,0.0735 h -0.002 l -4.39313,1.20412 c -0.0765,-0.15451 -0.0608,-0.3665 0.0552,-0.62379 0.1198,-0.26559 0.344,-0.57358 0.66018,-0.89864 0.63234,-0.65014 1.63181,-1.36774 2.89444,-1.97447 0.44523,-0.21394 0.92416,-0.41346 1.4303,-0.59233 l 0.0716,2.62619 c 0.0196,-0.0212 0.0377,-0.042 0.0582,-0.0633 l -0.0713,-2.58396 c 1.59514,-0.55606 3.46678,-0.89701 5.47702,-0.7902 l -0.039,0.44622 c 0.0204,-0.006 0.041,-0.0108 0.0614,-0.0163 l 0.0375,-0.42718 c 0.0295,0.002 0.0585,0.002 0.088,0.004 0.39198,0.0251 0.78925,0.0686 1.19042,0.12978 0.11801,-0.0207 0.23682,-0.0403 0.35662,-0.0582 -0.52002,-0.0925 -1.03381,-0.15433 -1.53894,-0.18668 v 2.1e-4 c -0.34472,-0.0221 -0.68553,-0.031 -1.0217,-0.028 z m 7.21514,12.59389 c 0,0.004 0,0.007 0,0.0103 1.9e-4,-8e-4 4e-4,-0.001 8.2e-4,-0.002 -1.3e-4,-0.003 -4.2e-4,-0.005 -8.2e-4,-0.008 z m -5.90436,2.89009 -0.0403,0.0422 1.01063,0.92183 c 0.0274,-0.001 0.0546,-0.003 0.082,-0.004 z m -10.83114,5.01666 -0.0138,0.0563 c 1.44037,0.31474 2.88264,0.63278 4.45278,0.60207 -8.3e-4,-0.0191 -0.002,-0.0383 -0.002,-0.0571 -1.56072,0.0302 -2.99645,-0.28655 -4.43658,-0.60123 z"
         style="color:#000000;font-style:normal;font-variant:normal;font-weight:normal;font-stretch:normal;font-size:medium;line-height:normal;font-family:sans-serif;font-variant-ligatures:normal;font-variant-position:normal;font-variant-caps:normal;font-variant-numeric:normal;font-variant-alternates:normal;font-feature-settings:normal;text-indent:0;text-align:start;text-decoration:none;text-decoration-line:none;text-decoration-style:solid;text-decoration-color:#000000;letter-spacing:normal;word-spacing:normal;text-transform:none;writing-mode:lr-tb;direction:ltr;text-orientation:mixed;dominant-baseline:auto;baseline-shift:baseline;text-anchor:start;white-space:normal;shape-padding:0;clip-rule:nonzero;display:inline;overflow:visible;visibility:visible;opacity:1;isolation:auto;mix-blend-mode:normal;color-interpolation:sRGB;color-interpolation-filters:linearRGB;solid-color:#000000;solid-opacity:1;vector-effect:none;fill:#646464;fill-opacity:1;fill-rule:nonzero;stroke:none;stroke-width:0.03995265;stroke-linecap:butt;stroke-linejoin:miter;stroke-miterlimit:4;stroke-dasharray:none;stroke-dashoffset:0;stroke-opacity:1;color-rendering:auto;image-rendering:auto;shape-rendering:auto;text-rendering:auto;enable-background:accumulate" />
      <path
         id="path5555"
         style="color:#000000;font-style:normal;font-variant:normal;font-weight:normal;font-stretch:normal;font-size:medium;line-height:normal;font-family:sans-serif;font-variant-ligatures:normal;font-variant-position:normal;font-variant-caps:normal;font-variant-numeric:normal;font-variant-alternates:normal;font-feature-settings:normal;text-indent:0;text-align:start;text-decoration:none;text-decoration-line:none;text-decoration-style:solid;text-decoration-color:#000000;letter-spacing:normal;word-spacing:normal;text-transform:none;writing-mode:lr-tb;direction:ltr;text-orientation:mixed;dominant-baseline:auto;baseline-shift:baseline;text-anchor:start;white-space:normal;shape-padding:0;clip-rule:nonzero;display:inline;overflow:visible;visibility:visible;opacity:1;isolation:auto;mix-blend-mode:normal;color-interpolation:sRGB;color-interpolation-filters:linearRGB;solid-color:#000000;solid-opacity:1;vector-effect:none;fill:#000000;fill-opacity:1;fill-rule:nonzero;stroke:none;stroke-width:1.36672473;stroke-linecap:butt;stroke-linejoin:miter;stroke-miterlimit:4;stroke-dasharray:none;stroke-dashoffset:0;stroke-opacity:1;color-rendering:auto;image-rendering:auto;shape-rendering:auto;text-rendering:auto;enable-background:accumulate"
         d="m 157.47187,186.23124 -0.005,4.58389 -0.11997,4.10595 0.0596,0.002 0.11998,-4.10673 0.005,-4.58468 z m 3.5757,-0.16036 -0.0556,0.0211 1.75927,4.36878 2.17795,4.36721 0.0539,-0.0251 -2.17795,-4.36565 z m 2.35911,-0.88237 -0.0403,0.0422 3.49841,3.19152 3.92674,3.03116 0.0371,-0.0454 -3.92514,-3.02959 z m 1.13044,-1.98922 -0.01,0.0571 4.70614,0.7619 c 0,0 1.14943,0.2739 2.29309,0.54834 0.57183,0.13722 1.14241,0.27492 1.56683,0.37782 0.21221,0.0515 0.38773,0.0944 0.50886,0.12437 0.0605,0.015 0.1076,0.0264 0.13848,0.0344 0.0154,0.004 0.027,0.007 0.0339,0.009 0.003,8e-4 0.005,0.002 0.005,0.002 0,0 -8.2e-4,-8e-4 -8.2e-4,-8e-4 -4.2e-4,-2.5e-4 -0.005,-0.002 -0.005,-0.002 1e-4,7e-5 -8.2e-4,-0.0462 -8.2e-4,-0.0462 -5e-5,3e-5 0.0179,-0.006 0.0177,-0.006 v 0.0579 c 1.9e-4,0 0.0193,-0.006 0.0193,-0.006 4e-5,-3e-5 -0.002,-0.0461 -0.002,-0.0462 -1e-4,-7e-5 -0.004,-0.003 -0.005,-0.003 -0.001,-4e-4 -0.002,-4e-4 -0.003,-8e-4 -0.003,-10e-4 -0.005,-0.002 -0.01,-0.003 -0.007,-0.002 -0.019,-0.005 -0.0346,-0.009 -0.0313,-0.008 -0.0786,-0.0202 -0.13929,-0.0352 -0.12132,-0.03 -0.2966,-0.0729 -0.50886,-0.12437 -0.42452,-0.10293 -0.99498,-0.23981 -1.56684,-0.37704 -1.1437,-0.27445 -2.29388,-0.54913 -2.29388,-0.54913 h -8.3e-4 z m 8.92838,-5.79166 -4.39374,1.90552 -4.47265,1.90631 0.0234,0.0524 4.47345,-1.90553 4.39374,-1.90631 z m -4.33014,-5.82531 -1.69404,3.70154 -3.4034,4.23658 0.0467,0.0352 3.40822,-4.24128 1.69647,-3.70858 z m -6.17072,-1.77489 -0.3132,3.58264 -0.70612,4.69497 0.058,0.009 0.70694,-4.69732 0.31401,-3.58342 z m -5.48069,0.79475 -0.0588,0.002 0.0781,2.86767 0.47102,3.53884 0.0588,-0.007 -0.47022,-3.5357 z m 2.09662,2.63457 c -0.9334,0.057 -1.86622,0.1712 -2.79872,0.30038 h -0.002 l -4.44687,1.21872 0.0161,0.0555 4.44527,-1.21794 c 1.8623,-0.25789 3.72257,-0.45348 5.58134,-0.25814 0.86884,0.0949 1.93886,0.27637 2.90582,0.61718 0.96693,0.34081 1.82977,0.84085 2.28824,1.56838 0.93827,1.62858 1.29492,2.40052 1.50484,3.93543 v 8e-4 c 0.26961,1.62908 0.31419,3.25782 0.11112,4.88662 -0.28698,1.67564 -1.19854,3.02809 -2.32127,4.03555 l -0.002,0.002 -8.3e-4,0.002 c -0.93343,1.08522 -2.58806,1.48398 -4.09019,2.03851 -1.7952,0.4251 -3.53284,0.38705 -5.27539,0.36608 h -8.2e-4 -0.002 c -1.74962,0.11568 -3.33084,-0.23519 -4.91789,-0.58198 l -0.0137,0.0563 c 1.58691,0.34676 3.17546,0.69913 4.9356,0.58276 1.74159,0.021 3.48348,0.0603 5.28747,-0.36687 l 0.002,-8e-4 0.002,-8e-4 c 1.49728,-0.5531 3.16306,-0.94958 4.11516,-2.05414 l 8.3e-4,-8.1e-4 c 1.13039,-1.01459 2.04988,-2.3787 2.33898,-4.06918 v -8e-4 -8.1e-4 c 0.20375,-1.63408 0.15921,-3.26768 -0.11112,-4.90148 v -8e-4 c -0.2108,-1.54068 -0.57353,-2.32537 -1.51288,-3.95576 v -8e-4 c -0.46941,-0.74491 -1.34508,-1.24941 -2.31886,-1.59263 -0.97377,-0.34322 -2.04769,-0.52506 -2.9195,-0.62032 -0.93426,-0.0982 -1.86773,-0.0984 -2.80113,-0.0415 z m 3.53705,-3.50441 c -2.75777,-0.17664 -5.26348,0.49 -7.17393,1.40802 -1.27363,0.61201 -2.28313,1.33601 -2.92836,1.99939 -0.32261,0.3317 -0.55396,0.64787 -0.68197,0.93164 -0.12799,0.28377 -0.15395,0.54028 -0.0451,0.73921 0.20358,0.37201 0.61912,0.67614 1.15459,0.93791 0.53547,0.26176 1.19313,0.48032 1.88809,0.66959 1.38992,0.37853 2.93071,0.6407 3.92755,0.88705 2.27684,0.5627 3.61134,1.11153 4.3881,1.86407 0.77527,0.75109 1.00848,1.7122 1.07488,3.13285 -0.3336,1.27709 -0.53073,1.96278 -1.00081,2.44683 -0.47053,0.48453 -1.23284,0.78543 -2.71257,1.27582 -2.21083,0.16576 -4.46278,0.10296 -6.11355,0.6915 -0.8263,0.2946 -1.50295,0.75598 -1.93801,1.49172 -0.43506,0.73575 -0.62679,1.74056 -0.5,3.11956 0.0597,0.64856 0.45767,1.25373 1.08616,1.78975 0.62848,0.53602 1.48902,1.00589 2.48712,1.38612 1.99622,0.76044 4.5426,1.1632 6.88167,1.00126 l 0.006,-8e-4 0.005,-0.002 c 4.40096,-1.20885 7.11404,-2.92024 8.76894,-5.12755 1.65492,-2.20731 2.24829,-4.90461 2.42917,-8.07345 v -0.002 -0.002 c 0,-2.40759 -0.36042,-4.95787 -1.56362,-7.14415 -1.2032,-2.18629 -3.25171,-4.00577 -6.61114,-4.94216 -0.96241,-0.26826 -1.91005,-0.42063 -2.82932,-0.47951 z m -0.007,0.11499 c 0.91141,0.0583 1.85033,0.20967 2.80436,0.4756 3.33264,0.92892 5.34974,2.72323 6.53948,4.88505 1.18974,2.16182 1.54993,4.69377 1.54993,7.09018 -0.1805,3.15712 -0.77219,5.82746 -2.40741,8.00852 -1.63481,2.18048 -4.31698,3.87862 -8.69731,5.08296 -2.31774,0.15967 -4.84913,-0.24141 -6.82531,-0.99422 -0.98876,-0.37666 -1.8386,-0.84141 -2.4525,-1.365 -0.61392,-0.52359 -0.99066,-1.10356 -1.0467,-1.71309 -0.1254,-1.3638 0.0653,-2.34318 0.48469,-3.05229 0.41931,-0.7091 1.06833,-1.15262 1.87682,-1.44087 1.61702,-0.57651 3.86701,-0.51816 6.08859,-0.68524 h 0.008 l 0.007,-0.002 c 1.48783,-0.49288 2.27059,-0.79553 2.76893,-1.30868 0.49833,-0.51315 0.69572,-1.22164 1.0314,-2.50706 l 0.002,-0.008 -8.3e-4,-0.009 c -0.0663,-1.43513 -0.30601,-2.43812 -1.11031,-3.21733 -0.8043,-0.77921 -2.15895,-1.32857 -4.44285,-1.89301 -1.00561,-0.24852 -2.54266,-0.51077 -3.92433,-0.88705 -0.69084,-0.18815 -1.34291,-0.40471 -1.86716,-0.66099 -0.52425,-0.25628 -0.91857,-0.55228 -1.10307,-0.8894 -0.0852,-0.15563 -0.0715,-0.3735 0.0483,-0.63909 0.1198,-0.26559 0.34406,-0.57372 0.66022,-0.89879 0.63234,-0.65013 1.6319,-1.36763 2.89454,-1.97436 1.89395,-0.91009 4.37933,-1.57202 7.11356,-1.39707 z"
         inkscape:connector-curvature="0" />
      <path
         style="color:#000000;font-style:normal;font-variant:normal;font-weight:normal;font-stretch:normal;font-size:medium;line-height:normal;font-family:sans-serif;font-variant-ligatures:normal;font-variant-position:normal;font-variant-caps:normal;font-variant-numeric:normal;font-variant-alternates:normal;font-feature-settings:normal;text-indent:0;text-align:start;text-decoration:none;text-decoration-line:none;text-decoration-style:solid;text-decoration-color:#000000;letter-spacing:normal;word-spacing:normal;text-transform:none;writing-mode:lr-tb;direction:ltr;text-orientation:mixed;dominant-baseline:auto;baseline-shift:baseline;text-anchor:start;white-space:normal;shape-padding:0;clip-rule:nonzero;display:inline;overflow:visible;visibility:visible;opacity:1;isolation:auto;mix-blend-mode:normal;color-interpolation:sRGB;color-interpolation-filters:linearRGB;solid-color:#000000;solid-opacity:1;vector-effect:none;fill:#828282;fill-opacity:1;fill-rule:nonzero;stroke:none;stroke-width:0.03995265;stroke-linecap:butt;stroke-linejoin:miter;stroke-miterlimit:4;stroke-dasharray:none;stroke-dashoffset:0;stroke-opacity:1;color-rendering:auto;image-rendering:auto;shape-rendering:auto;text-rendering:auto;enable-background:accumulate"
         d="m 153.00973,169.70449 c -2.35323,0.0218 -4.4807,0.63267 -6.15233,1.43593 -1.27364,0.61201 -2.2831,1.33591 -2.92832,1.9993 -0.32261,0.33169 -0.55391,0.64799 -0.68192,0.93175 -0.12799,0.28377 -0.15403,0.54015 -0.0451,0.73908 0.20358,0.37202 0.61915,0.67621 1.15462,0.93798 0.53548,0.26176 1.19314,0.48027 1.8881,0.66954 1.38991,0.37852 2.9306,0.64069 3.92744,0.88706 2.27684,0.56268 3.61145,1.1116 4.38821,1.86414 0.55808,0.54066 0.8343,1.19118 0.97058,2.04254 l -0.0181,0.008 0.0235,0.0524 0.004,-0.002 c 0.0476,0.3153 0.0775,0.65729 0.095,1.03193 -0.33361,1.2771 -0.53076,1.96271 -1.00082,2.44675 -0.47054,0.48454 -1.233,0.78557 -2.71273,1.27596 -1.18887,0.0891 -2.38862,0.11278 -3.50139,0.20655 l -0.0347,-2.1e-4 v 0.003 c -0.94346,0.0809 -1.82359,0.21345 -2.57746,0.48223 -0.82631,0.2946 -1.50289,0.75586 -1.93795,1.4916 -0.43505,0.73575 -0.62676,1.74061 -0.49998,3.11961 0.0597,0.64856 0.45776,1.25382 1.08625,1.78984 0.62848,0.53602 1.48901,1.00583 2.48713,1.38606 1.99622,0.76043 4.54247,1.16323 6.88154,1.00129 l 0.006,-7.9e-4 0.005,-0.002 c 0.27627,-0.0759 0.54576,-0.15383 0.80888,-0.23368 -0.0874,-0.0137 -0.17494,-0.0274 -0.26181,-0.0425 -0.18779,0.0554 -0.37758,0.11004 -0.57199,0.1635 -1.82289,0.12558 -3.77687,-0.0969 -5.49002,-0.56336 l 0.0709,-2.42461 c -0.0196,-0.0272 -0.0389,-0.0544 -0.0573,-0.0817 l -0.0729,2.49042 c -0.4439,-0.12273 -0.872,-0.26105 -1.27606,-0.41496 -0.98875,-0.37667 -1.83871,-0.84137 -2.45261,-1.36495 -0.61392,-0.52359 -0.99058,-1.10352 -1.04662,-1.71306 -0.1254,-1.3638 0.0654,-2.34324 0.48463,-3.05234 0.41931,-0.7091 1.06831,-1.15264 1.87681,-1.4409 0.73503,-0.26206 1.60165,-0.39221 2.53613,-0.47271 l -0.002,2.00799 c 0.0194,-0.0365 0.0391,-0.0723 0.0597,-0.10742 l 0.002,-1.90554 c 1.10096,-0.0921 2.29394,-0.11802 3.48008,-0.20676 l 0.10071,0.25023 c 0.0203,-0.003 0.0404,-0.006 0.0607,-0.008 l -0.10285,-0.25561 c 1.46648,-0.48645 2.24322,-0.78873 2.73787,-1.29809 0.3595,-0.37019 0.56234,-0.84601 0.77352,-1.5628 l 4.2342,0.68546 c 0.007,-0.018 0.0148,-0.0365 0.0222,-0.055 l -4.23931,-0.68629 c 0.0761,-0.26234 0.15391,-0.55528 0.24094,-0.88851 l 0.002,-0.008 -8.2e-4,-0.009 c -0.0181,-0.39179 -0.0499,-0.7504 -0.10178,-1.08202 l 3.86309,-1.64558 c -0.0115,-0.0164 -0.0242,-0.032 -0.036,-0.0482 l -3.83648,1.63545 c -0.10617,-0.64068 -0.29353,-1.17642 -0.6214,-1.63752 l 1.43731,-1.78861 c -0.0198,-0.006 -0.0399,-0.0128 -0.0599,-0.0192 l -1.41345,1.75942 c -0.10103,-0.13636 -0.21356,-0.2668 -0.34171,-0.39095 -0.41151,-0.39868 -0.96836,-0.73715 -1.71874,-1.04829 l 0.17192,-1.14225 c -0.0198,-0.004 -0.0377,-0.008 -0.0577,-0.0122 l -0.17021,1.1319 c -0.70683,-0.28818 -1.58111,-0.55367 -2.66799,-0.82228 -0.36017,-0.089 -0.80133,-0.18206 -1.26627,-0.2792 l -0.17212,-1.29478 c -0.0216,-0.0114 -0.0434,-0.023 -0.0646,-0.0346 l 0.17511,1.31652 c -0.81833,-0.1708 -1.73154,-0.35943 -2.59662,-0.59503 -0.69084,-0.18815 -1.34276,-0.40456 -1.86701,-0.66085 -0.50511,-0.24692 -0.88765,-0.5312 -1.08007,-0.85311 l 4.37779,-1.19958 c 0.16148,-0.0223 0.32297,-0.0434 0.48443,-0.0646 0.0172,-0.0215 0.0356,-0.0435 0.0537,-0.0652 -0.18338,0.0239 -0.36669,0.0481 -0.55005,0.0735 h -0.002 l -4.39313,1.20412 c -0.0765,-0.15451 -0.0609,-0.3665 0.0552,-0.62379 0.1198,-0.26559 0.344,-0.57358 0.66017,-0.89864 0.63235,-0.65014 1.63181,-1.36774 2.89445,-1.97447 0.44523,-0.21394 0.92415,-0.41346 1.4303,-0.59233 l 0.0716,2.62619 c 0.0196,-0.0212 0.0377,-0.042 0.0582,-0.0633 l -0.0713,-2.58396 c 1.59513,-0.55606 3.46677,-0.89701 5.47702,-0.7902 l -0.039,0.44622 c 0.0204,-0.006 0.041,-0.0108 0.0614,-0.0163 l 0.0375,-0.42718 c 0.0295,0.002 0.0585,0.002 0.088,0.004 0.39198,0.0251 0.78924,0.0686 1.1904,0.12978 0.11802,-0.0207 0.23684,-0.0403 0.35663,-0.0582 -0.52001,-0.0925 -1.03382,-0.15433 -1.53893,-0.18668 v 2.1e-4 c -0.34473,-0.0221 -0.68554,-0.031 -1.0217,-0.028 z m 7.21515,12.59389 c 0,0.004 0,0.007 0,0.0103 1.9e-4,-8e-4 4.1e-4,-0.001 8.2e-4,-0.002 -1.3e-4,-0.003 -4.1e-4,-0.005 -8.2e-4,-0.008 z m -5.90437,2.89009 -0.0403,0.0422 1.01063,0.92183 c 0.0274,-0.001 0.0546,-0.003 0.082,-0.004 z m -10.83113,5.01666 -0.0138,0.0563 c 1.44036,0.31474 2.88263,0.63278 4.45277,0.60207 -8.3e-4,-0.0191 -0.002,-0.0383 -0.002,-0.0571 -1.56073,0.0302 -2.99646,-0.28655 -4.43659,-0.60123 z"
         id="path5557"
         inkscape:connector-curvature="0" />
      <path
         inkscape:connector-curvature="0"
         id="path5559"
         d="m 148.41678,169.70449 c -2.35324,0.0218 -4.48071,0.63267 -6.15234,1.43593 -1.27364,0.61201 -2.2831,1.33591 -2.92832,1.9993 -0.32261,0.33169 -0.55391,0.64799 -0.68192,0.93175 -0.12799,0.28377 -0.15403,0.54015 -0.0451,0.73908 0.20358,0.37202 0.61915,0.67621 1.15462,0.93798 0.53548,0.26176 1.19314,0.48027 1.8881,0.66954 1.38991,0.37852 2.9306,0.64069 3.92744,0.88706 2.27684,0.56268 3.61145,1.1116 4.38822,1.86414 0.55807,0.54066 0.83429,1.19118 0.97057,2.04254 l -0.0181,0.008 0.0235,0.0524 0.004,-0.002 c 0.0476,0.3153 0.0775,0.65729 0.095,1.03193 -0.33361,1.2771 -0.53076,1.96271 -1.00082,2.44675 -0.47053,0.48454 -1.233,0.78557 -2.71273,1.27596 -1.18887,0.0891 -2.38863,0.11278 -3.50139,0.20655 l -0.0347,-2.1e-4 v 0.003 c -0.94346,0.0809 -1.82359,0.21345 -2.57747,0.48223 -0.8263,0.2946 -1.50287,0.75586 -1.93794,1.4916 -0.43505,0.73575 -0.62676,1.74061 -0.49998,3.11961 0.0597,0.64856 0.45776,1.25382 1.08625,1.78984 0.62848,0.53602 1.48902,1.00583 2.48713,1.38606 1.99621,0.76043 4.54247,1.16323 6.88154,1.00129 l 0.006,-7.9e-4 0.005,-0.002 c 0.27626,-0.0759 0.54575,-0.15383 0.80887,-0.23368 -0.0874,-0.0137 -0.17494,-0.0274 -0.26181,-0.0425 -0.18778,0.0554 -0.37758,0.11004 -0.57199,0.1635 -1.82288,0.12558 -3.77687,-0.0969 -5.49002,-0.56336 l 0.0709,-2.42461 c -0.0196,-0.0272 -0.0389,-0.0544 -0.0573,-0.0817 l -0.0729,2.49042 c -0.4439,-0.12273 -0.872,-0.26105 -1.27606,-0.41496 -0.98875,-0.37667 -1.83871,-0.84137 -2.45262,-1.36495 -0.61391,-0.52359 -0.99057,-1.10352 -1.04661,-1.71306 -0.1254,-1.3638 0.0653,-2.34324 0.48464,-3.05234 0.4193,-0.7091 1.0683,-1.15264 1.8768,-1.4409 0.73503,-0.26206 1.60165,-0.39221 2.53613,-0.47271 l -0.002,2.00799 c 0.0194,-0.0365 0.0391,-0.0723 0.0597,-0.10742 l 0.002,-1.90554 c 1.10096,-0.0921 2.29394,-0.11802 3.48008,-0.20676 l 0.10071,0.25023 c 0.0203,-0.003 0.0405,-0.006 0.0608,-0.008 l -0.10286,-0.25561 c 1.46649,-0.48645 2.24323,-0.78873 2.73788,-1.29809 0.3595,-0.37019 0.56234,-0.84601 0.77352,-1.5628 l 4.2342,0.68546 c 0.008,-0.018 0.0149,-0.0365 0.0222,-0.055 l -4.23931,-0.68629 c 0.0761,-0.26234 0.15391,-0.55528 0.24094,-0.88851 l 0.002,-0.008 -8.3e-4,-0.009 c -0.0181,-0.39179 -0.0499,-0.7504 -0.10178,-1.08202 l 3.8631,-1.64558 c -0.0115,-0.0164 -0.0242,-0.032 -0.036,-0.0482 l -3.83649,1.63545 c -0.10617,-0.64068 -0.29354,-1.17642 -0.62141,-1.63752 l 1.43733,-1.78861 c -0.0198,-0.006 -0.0399,-0.0128 -0.0599,-0.0192 l -1.41345,1.75942 c -0.10103,-0.13636 -0.21356,-0.2668 -0.34171,-0.39095 -0.41151,-0.39868 -0.96836,-0.73715 -1.71873,-1.04829 l 0.1719,-1.14225 c -0.0198,-0.004 -0.0377,-0.008 -0.0577,-0.0122 l -0.17021,1.1319 c -0.70683,-0.28818 -1.58111,-0.55367 -2.66799,-0.82228 -0.36018,-0.089 -0.80133,-0.18206 -1.26627,-0.2792 l -0.17212,-1.29478 c -0.0216,-0.0114 -0.0434,-0.023 -0.0645,-0.0346 l 0.17511,1.31652 c -0.81833,-0.1708 -1.73154,-0.35943 -2.59663,-0.59503 -0.69084,-0.18815 -1.34276,-0.40456 -1.86701,-0.66085 -0.5051,-0.24692 -0.88765,-0.5312 -1.08006,-0.85311 l 4.37778,-1.19958 c 0.16149,-0.0223 0.32298,-0.0434 0.48443,-0.0646 0.0172,-0.0215 0.0356,-0.0435 0.0537,-0.0652 -0.18339,0.0239 -0.3667,0.0481 -0.55005,0.0735 h -0.002 l -4.39313,1.20412 c -0.0765,-0.15451 -0.0609,-0.3665 0.0552,-0.62379 0.1198,-0.26559 0.34401,-0.57358 0.66018,-0.89864 0.63234,-0.65014 1.63181,-1.36774 2.89445,-1.97447 0.44522,-0.21394 0.92415,-0.41346 1.43029,-0.59233 l 0.0716,2.62619 c 0.0196,-0.0212 0.0377,-0.042 0.0582,-0.0633 l -0.0713,-2.58396 c 1.59514,-0.55606 3.46677,-0.89701 5.47702,-0.7902 l -0.039,0.44622 c 0.0204,-0.006 0.041,-0.0108 0.0614,-0.0163 l 0.0375,-0.42718 c 0.0295,0.002 0.0585,0.002 0.088,0.004 0.39198,0.0251 0.78926,0.0686 1.19042,0.12978 0.11801,-0.0207 0.23682,-0.0403 0.35661,-0.0582 -0.52001,-0.0925 -1.03381,-0.15433 -1.53893,-0.18668 v 2.1e-4 c -0.34472,-0.0221 -0.68552,-0.031 -1.0217,-0.028 z m 7.21514,12.59389 c 0,0.004 0,0.007 0,0.0103 1.9e-4,-8e-4 4.1e-4,-0.001 8.2e-4,-0.002 -1.4e-4,-0.003 -4.1e-4,-0.005 -8.2e-4,-0.008 z m -5.90437,2.89009 -0.0403,0.0422 1.01063,0.92183 c 0.0274,-0.001 0.0546,-0.003 0.082,-0.004 z m -10.83113,5.01666 -0.0138,0.0563 c 1.44036,0.31474 2.88263,0.63278 4.45277,0.60207 -8.3e-4,-0.0191 -0.002,-0.0383 -0.002,-0.0571 -1.56073,0.0302 -2.99646,-0.28655 -4.43659,-0.60123 z"
         style="color:#000000;font-style:normal;font-variant:normal;font-weight:normal;font-stretch:normal;font-size:medium;line-height:normal;font-family:sans-serif;font-variant-ligatures:normal;font-variant-position:normal;font-variant-caps:normal;font-variant-numeric:normal;font-variant-alternates:normal;font-feature-settings:normal;text-indent:0;text-align:start;text-decoration:none;text-decoration-line:none;text-decoration-style:solid;text-decoration-color:#000000;letter-spacing:normal;word-spacing:normal;text-transform:none;writing-mode:lr-tb;direction:ltr;text-orientation:mixed;dominant-baseline:auto;baseline-shift:baseline;text-anchor:start;white-space:normal;shape-padding:0;clip-rule:nonzero;display:inline;overflow:visible;visibility:visible;opacity:1;isolation:auto;mix-blend-mode:normal;color-interpolation:sRGB;color-interpolation-filters:linearRGB;solid-color:#000000;solid-opacity:1;vector-effect:none;fill:#a0a0a0;fill-opacity:1;fill-rule:nonzero;stroke:none;stroke-width:0.03995265;stroke-linecap:butt;stroke-linejoin:miter;stroke-miterlimit:4;stroke-dasharray:none;stroke-dashoffset:0;stroke-opacity:1;color-rendering:auto;image-rendering:auto;shape-rendering:auto;text-rendering:auto;enable-background:accumulate" />
      <path
         style="color:#000000;font-style:normal;font-variant:normal;font-weight:normal;font-stretch:normal;font-size:medium;line-height:normal;font-family:sans-serif;font-variant-ligatures:normal;font-variant-position:normal;font-variant-caps:normal;font-variant-numeric:normal;font-variant-alternates:normal;font-feature-settings:normal;text-indent:0;text-align:start;text-decoration:none;text-decoration-line:none;text-decoration-style:solid;text-decoration-color:#000000;letter-spacing:normal;word-spacing:normal;text-transform:none;writing-mode:lr-tb;direction:ltr;text-orientation:mixed;dominant-baseline:auto;baseline-shift:baseline;text-anchor:start;white-space:normal;shape-padding:0;clip-rule:nonzero;display:inline;overflow:visible;visibility:visible;opacity:1;isolation:auto;mix-blend-mode:normal;color-interpolation:sRGB;color-interpolation-filters:linearRGB;solid-color:#000000;solid-opacity:1;vector-effect:none;fill:#c8c8c8;fill-opacity:1;fill-rule:nonzero;stroke:none;stroke-width:0.03995265;stroke-linecap:butt;stroke-linejoin:miter;stroke-miterlimit:4;stroke-dasharray:none;stroke-dashoffset:0;stroke-opacity:1;color-rendering:auto;image-rendering:auto;shape-rendering:auto;text-rendering:auto;enable-background:accumulate"
         d="m 143.85402,169.70449 c -2.35324,0.0218 -4.48071,0.63267 -6.15234,1.43593 -1.27364,0.61201 -2.2831,1.33591 -2.92832,1.9993 -0.32261,0.33169 -0.55391,0.64799 -0.68192,0.93175 -0.12799,0.28377 -0.15403,0.54015 -0.0452,0.73908 0.20358,0.37202 0.61915,0.67621 1.15462,0.93798 0.53548,0.26176 1.19314,0.48027 1.88811,0.66954 1.3899,0.37852 2.93059,0.64069 3.92743,0.88706 2.27684,0.56268 3.61145,1.1116 4.38823,1.86414 0.55806,0.54066 0.83428,1.19118 0.97056,2.04254 l -0.0181,0.008 0.0235,0.0524 0.004,-0.002 c 0.0476,0.3153 0.0775,0.65729 0.095,1.03193 -0.33361,1.2771 -0.53075,1.96271 -1.00082,2.44675 -0.47053,0.48454 -1.233,0.78557 -2.71273,1.27596 -1.18886,0.0891 -2.38862,0.11278 -3.50139,0.20655 l -0.0347,-2.1e-4 v 0.003 c -0.94346,0.0809 -1.82358,0.21345 -2.57746,0.48223 -0.8263,0.2946 -1.50287,0.75586 -1.93794,1.4916 -0.43505,0.73575 -0.62676,1.74061 -0.49999,3.11961 0.0597,0.64856 0.45776,1.25382 1.08625,1.78984 0.62848,0.53602 1.48903,1.00583 2.48713,1.38606 1.99622,0.76043 4.54247,1.16323 6.88154,1.00129 l 0.006,-7.9e-4 0.005,-0.002 c 0.27626,-0.0759 0.54575,-0.15383 0.80887,-0.23368 -0.0874,-0.0137 -0.17493,-0.0274 -0.26181,-0.0425 -0.18778,0.0554 -0.37758,0.11004 -0.57199,0.1635 -1.82288,0.12558 -3.77687,-0.0969 -5.49002,-0.56336 l 0.0709,-2.42461 c -0.0196,-0.0272 -0.0389,-0.0544 -0.0573,-0.0817 l -0.0729,2.49042 c -0.4439,-0.12273 -0.87201,-0.26105 -1.27607,-0.41496 -0.98875,-0.37667 -1.83871,-0.84137 -2.45261,-1.36495 -0.61392,-0.52359 -0.99058,-1.10352 -1.04662,-1.71306 -0.12539,-1.3638 0.0653,-2.34324 0.48464,-3.05234 0.4193,-0.7091 1.06831,-1.15264 1.8768,-1.4409 0.73503,-0.26206 1.60165,-0.39221 2.53613,-0.47271 l -0.002,2.00799 c 0.0194,-0.0365 0.0391,-0.0723 0.0597,-0.10742 l 0.002,-1.90554 c 1.10095,-0.0921 2.29393,-0.11802 3.48007,-0.20676 l 0.10082,0.25023 c 0.0201,-0.003 0.0404,-0.006 0.0607,-0.008 l -0.10285,-0.25561 c 1.46648,-0.48645 2.24322,-0.78873 2.73787,-1.29809 0.3595,-0.37019 0.56234,-0.84601 0.77352,-1.5628 l 4.2342,0.68546 c 0.008,-0.018 0.0148,-0.0365 0.0222,-0.055 l -4.23931,-0.68629 c 0.0761,-0.26234 0.15391,-0.55528 0.24094,-0.88851 l 0.002,-0.008 -8.3e-4,-0.009 c -0.0181,-0.39179 -0.0499,-0.7504 -0.10178,-1.08202 l 3.8631,-1.64558 c -0.0115,-0.0164 -0.0242,-0.032 -0.036,-0.0482 l -3.83649,1.63545 c -0.10617,-0.64068 -0.29353,-1.17642 -0.6214,-1.63752 l 1.43732,-1.78861 c -0.0198,-0.006 -0.0399,-0.0128 -0.0599,-0.0192 l -1.41345,1.75942 c -0.10103,-0.13636 -0.21356,-0.2668 -0.34171,-0.39095 -0.41151,-0.39868 -0.96836,-0.73715 -1.71873,-1.04829 l 0.17191,-1.14225 c -0.0198,-0.004 -0.0377,-0.008 -0.0578,-0.0122 l -0.17021,1.1319 c -0.70683,-0.28818 -1.58111,-0.55367 -2.66799,-0.82228 -0.36017,-0.089 -0.80133,-0.18206 -1.26627,-0.2792 l -0.17212,-1.29478 c -0.0216,-0.0114 -0.0434,-0.023 -0.0645,-0.0346 l 0.1751,1.31652 c -0.81833,-0.1708 -1.73154,-0.35943 -2.59663,-0.59503 -0.69084,-0.18815 -1.34275,-0.40456 -1.86701,-0.66085 -0.5051,-0.24692 -0.88765,-0.5312 -1.08006,-0.85311 l 4.37778,-1.19958 c 0.16149,-0.0223 0.32298,-0.0434 0.48443,-0.0646 0.0172,-0.0215 0.0356,-0.0435 0.0537,-0.0652 -0.18339,0.0239 -0.3667,0.0481 -0.55005,0.0735 h -0.002 l -4.39313,1.20412 c -0.0765,-0.15451 -0.0609,-0.3665 0.0552,-0.62379 0.1198,-0.26559 0.34401,-0.57358 0.66018,-0.89864 0.63234,-0.65014 1.63181,-1.36774 2.89445,-1.97447 0.44522,-0.21394 0.92415,-0.41346 1.43029,-0.59233 l 0.0716,2.62619 c 0.0196,-0.0212 0.0377,-0.042 0.0582,-0.0633 l -0.0714,-2.58396 c 1.59514,-0.55606 3.46677,-0.89701 5.47702,-0.7902 l -0.039,0.44622 c 0.0204,-0.006 0.041,-0.0108 0.0614,-0.0163 l 0.0375,-0.42718 c 0.0295,0.002 0.0585,0.002 0.088,0.004 0.39198,0.0251 0.78926,0.0686 1.19042,0.12978 0.11801,-0.0207 0.23682,-0.0403 0.35661,-0.0582 -0.52001,-0.0925 -1.03381,-0.15433 -1.53893,-0.18668 v 2.1e-4 c -0.34472,-0.0221 -0.68552,-0.031 -1.0217,-0.028 z m 7.21514,12.59389 c 0,0.004 0,0.007 0,0.0103 1.9e-4,-8e-4 4.1e-4,-0.001 8.2e-4,-0.002 -1.3e-4,-0.003 -4.1e-4,-0.005 -8.2e-4,-0.008 z m -5.90437,2.89009 -0.0403,0.0422 1.01063,0.92183 c 0.0274,-0.001 0.0546,-0.003 0.082,-0.004 z m -10.83113,5.01666 -0.0138,0.0563 c 1.44036,0.31474 2.88263,0.63278 4.45277,0.60207 -8.3e-4,-0.0191 -0.002,-0.0383 -0.002,-0.0571 -1.56073,0.0302 -2.99646,-0.28655 -4.43659,-0.60123 z"
         id="path5561"
         inkscape:connector-curvature="0" />
    </g>
    <g
       id="g66947"
       transform="matrix(1.4633524,0,0,1.4633524,-114.98687,-295.0864)"
       style="stroke-width:0.68336236">
      <path
         style="color:#000000;font-style:normal;font-variant:normal;font-weight:normal;font-stretch:normal;font-size:medium;line-height:normal;font-family:sans-serif;font-variant-ligatures:normal;font-variant-position:normal;font-variant-caps:normal;font-variant-numeric:normal;font-variant-alternates:normal;font-feature-settings:normal;text-indent:0;text-align:start;text-decoration:none;text-decoration-line:none;text-decoration-style:solid;text-decoration-color:#000000;letter-spacing:normal;word-spacing:normal;text-transform:none;writing-mode:lr-tb;direction:ltr;text-orientation:mixed;dominant-baseline:auto;baseline-shift:baseline;text-anchor:start;white-space:normal;shape-padding:0;clip-rule:nonzero;display:inline;overflow:visible;visibility:visible;opacity:1;isolation:auto;mix-blend-mode:normal;color-interpolation:sRGB;color-interpolation-filters:linearRGB;solid-color:#000000;solid-opacity:1;vector-effect:none;fill:#c8c8c8;fill-opacity:1;fill-rule:nonzero;stroke:none;stroke-width:0.03423997;stroke-linecap:butt;stroke-linejoin:miter;stroke-miterlimit:4;stroke-dasharray:none;stroke-dashoffset:0;stroke-opacity:1;color-rendering:auto;image-rendering:auto;shape-rendering:auto;text-rendering:auto;enable-background:accumulate"
         d="m 88.861846,217.06914 c -0.470806,0.0161 -0.964471,0.17632 -1.487344,0.50644 l -0.01112,0.007 -0.0064,0.0115 c -1.257047,2.35618 -0.833522,4.41924 0.05511,6.22102 0.888632,1.80179 2.239031,3.35238 2.843864,4.69833 l 4.01e-4,0.002 8.03e-4,0.002 c 0.188942,0.35758 0.350131,0.66117 0.520366,0.98235 l 0.112589,-2.8e-4 -3.8e-5,-0.001 c -0.177222,-0.33432 -0.346777,-0.65348 -0.544463,-1.0276 l 0.0012,0.003 c -0.615802,-1.37037 -1.964226,-2.91579 -2.845095,-4.70183 -0.874654,-1.77345 -1.290075,-3.77489 -0.08067,-6.08079 l 1.957189,2.64313 0.04204,-0.0273 -1.968403,-2.65944 c 0.574828,-0.35771 1.102832,-0.50352 1.604039,-0.47621 0.169436,0.009 0.336077,0.038 0.500275,0.0848 0.238295,0.0679 0.472216,0.17474 0.703451,0.31529 l -0.0064,-0.12042 c -0.219046,-0.12745 -0.441723,-0.22628 -0.669729,-0.29125 -0.170998,-0.0487 -0.344593,-0.0784 -0.521521,-0.0878 -0.06635,-0.004 -0.133073,-0.004 -0.20033,-0.002 z"
         id="path66879"
         inkscape:connector-curvature="0"
         sodipodi:nodetypes="ccccsccccccccccccccccccccc" />
      <path
         sodipodi:nodetypes="ccccccccccccccccccccccccccccccccccc"
         style="color:#000000;font-style:normal;font-variant:normal;font-weight:normal;font-stretch:normal;font-size:medium;line-height:normal;font-family:sans-serif;font-variant-ligatures:normal;font-variant-position:normal;font-variant-caps:normal;font-variant-numeric:normal;font-variant-alternates:normal;font-feature-settings:normal;text-indent:0;text-align:start;text-decoration:none;text-decoration-line:none;text-decoration-style:solid;text-decoration-color:#000000;letter-spacing:normal;word-spacing:normal;text-transform:none;writing-mode:lr-tb;direction:ltr;text-orientation:mixed;dominant-baseline:auto;baseline-shift:baseline;text-anchor:start;white-space:normal;shape-padding:0;clip-rule:nonzero;display:inline;overflow:visible;visibility:visible;opacity:1;isolation:auto;mix-blend-mode:normal;color-interpolation:sRGB;color-interpolation-filters:linearRGB;solid-color:#000000;solid-opacity:1;vector-effect:none;fill:#969696;fill-opacity:1;fill-rule:nonzero;stroke:none;stroke-width:0.03423997;stroke-linecap:butt;stroke-linejoin:miter;stroke-miterlimit:4;stroke-dasharray:none;stroke-dashoffset:0;stroke-opacity:1;color-rendering:auto;image-rendering:auto;shape-rendering:auto;text-rendering:auto;enable-background:accumulate"
         d="m 91.883424,215.44293 c -0.271164,0.002 -0.569746,0.0971 -0.900229,0.29409 l -0.0114,0.007 -0.0066,0.0117 c -2.62759,4.63515 -1.881165,9.95664 -0.724604,12.71745 l 8.03e-4,0.002 8.03e-4,0.001 c 2.391869,4.82173 3.044383,5.9911 4.538608,8.33248 l -4.01e-4,-8.2e-4 c -6.03e-4,-0.001 -0.0012,-0.003 -0.0018,-0.005 -0.0064,-0.0126 -0.01307,-0.0251 -0.01939,-0.0378 l -0.0012,-0.002 -0.0016,-0.002 c -0.468476,-0.73399 -0.903672,-1.48612 -1.300865,-2.3094 -0.779667,-1.35417 -1.595851,-2.93939 -3.122593,-6.01706 l -4.01e-4,-0.002 c -2.01e-4,-5.8e-4 -4.02e-4,-5.4e-4 -8.03e-4,-0.001 -1.143081,-2.7308 -1.883127,-8.01847 0.714852,-12.6135 0.31208,-0.1839 0.586836,-0.27019 0.831454,-0.27407 l -0.406439,5.87567 4.01e-4,0.003 c 0.117303,0.73829 0.225797,1.47006 0.421068,2.27641 0.008,-0.0387 0.01608,-0.0774 0.02438,-0.11597 -0.178959,-0.7616 -0.283598,-1.45973 -0.395651,-2.1651 l 0.406233,-5.87329 c 0.04199,10e-4 0.08313,0.005 0.123344,0.011 h 1.01e-4 c 0.289555,0.0446 0.540159,0.21173 0.766933,0.48497 0.444937,0.53609 0.785813,1.47899 1.10169,2.62123 0.02443,-0.0356 0.0491,-0.071 0.07396,-0.10623 -0.310452,-1.11035 -0.643846,-2.03126 -1.098369,-2.57891 -0.237221,-0.28582 -0.510458,-0.47132 -0.828861,-0.52034 h -1.07e-4 c -0.0597,-0.009 -0.120827,-0.0135 -0.183407,-0.013 z"
         id="path66881"
         inkscape:connector-curvature="0" />
      <path
         id="path66883"
         transform="scale(0.26458333)"
         d="m 369.61523,814.07812 -0.1582,0.0684 c -8.85864,3.82806 -14.71411,10.71592 -18.4375,18.91602 -3.72339,8.2001 -5.32222,17.71454 -5.68359,26.8418 v 0.0195 l 0.004,0.0176 c 2.50142,16.79251 6.90247,26.4099 12.56836,35.28711 1.32604,2.64368 2.9054,5.23598 4.63672,7.78125 a 43.392858,43.392858 0 0 1 0.24219,-0.25977 c -1.66442,-2.46695 -3.18237,-4.97814 -4.46484,-7.53711 l -0.002,-0.008 -0.002,-0.004 c -0.001,-0.003 -0.003,-0.004 -0.004,-0.008 -0.0257,-0.0507 -0.0527,-0.10132 -0.0781,-0.15234 l -0.004,-0.008 -0.006,-0.008 c -5.64437,-8.84364 -10.0142,-18.38216 -12.50976,-35.11719 0.36117,-9.089 1.95386,-18.55513 5.64648,-26.6875 3.6512,-8.04109 9.36032,-14.76057 17.95117,-18.57226 l -3.92968,10.82812 c 0.12899,-0.17197 0.25828,-0.34019 0.38671,-0.50781 l 3.73047,-10.2793 c 0.75949,1.39438 1.37886,2.7467 1.87891,4.07422 0.10397,-0.0945 0.20718,-0.18745 0.31055,-0.27929 -0.52846,-1.3855 -1.18498,-2.79627 -1.99414,-4.25196 z"
         style="color:#000000;font-style:normal;font-variant:normal;font-weight:normal;font-stretch:normal;font-size:medium;line-height:normal;font-family:sans-serif;font-variant-ligatures:normal;font-variant-position:normal;font-variant-caps:normal;font-variant-numeric:normal;font-variant-alternates:normal;font-feature-settings:normal;text-indent:0;text-align:start;text-decoration:none;text-decoration-line:none;text-decoration-style:solid;text-decoration-color:#000000;letter-spacing:normal;word-spacing:normal;text-transform:none;writing-mode:lr-tb;direction:ltr;text-orientation:mixed;dominant-baseline:auto;baseline-shift:baseline;text-anchor:start;white-space:normal;shape-padding:0;clip-rule:nonzero;display:inline;overflow:visible;visibility:visible;opacity:1;isolation:auto;mix-blend-mode:normal;color-interpolation:sRGB;color-interpolation-filters:linearRGB;solid-color:#000000;solid-opacity:1;vector-effect:none;fill:#646464;fill-opacity:1;fill-rule:nonzero;stroke:none;stroke-width:0.12941092;stroke-linecap:butt;stroke-linejoin:miter;stroke-miterlimit:4;stroke-dasharray:none;stroke-dashoffset:0;stroke-opacity:1;color-rendering:auto;image-rendering:auto;shape-rendering:auto;text-rendering:auto;enable-background:accumulate"
         inkscape:connector-curvature="0" />
      <path
         id="path66887"
         transform="scale(0.26458333)"
         d="m 383.45703,813.05273 c -1.85687,-0.0205 -4.06793,0.45809 -6.54883,1.74415 -5.67065,2.93979 -12.74752,10.09265 -20.28515,25.20898 -2.85696,5.7295 -3.99728,15.87693 -3.6543,26.42578 0.34299,10.54889 2.1765,21.48662 5.33398,28.76758 l 0.002,0.004 0.002,0.008 c 1.47013,2.93339 3.2541,5.80187 5.21484,8.61328 a 49.642859,67.321429 0 0 1 0.25391,-0.30274 c -0.33407,-0.47982 -0.68025,-0.95599 -1.00195,-1.43945 l 10.26367,-8.72265 c 0.14442,0.25272 0.29729,0.48293 0.44531,0.72656 a 49.642859,67.321429 0 0 1 0.14844,-0.11524 c -0.14936,-0.24619 -0.30355,-0.4788 -0.44922,-0.73437 l 0.0547,-0.0449 14.08984,-7.90625 c 0.41641,0.47902 0.87466,0.97077 1.38477,1.48046 a 49.642859,67.321429 0 0 1 0.44531,-0.0977 c -1.80274,-1.78504 -3.06552,-3.36284 -3.54687,-4.67774 -0.48854,-2.32127 -0.83794,-4.38824 -1.06836,-6.38085 l 0.0254,-0.004 -0.0254,-0.18945 -0.0234,0.004 c -0.38353,-3.42856 -0.39001,-6.64448 -0.0293,-10.49804 h 0.0156 l 0.004,-0.18946 h -0.004 c 0.36264,-3.76875 1.06872,-8.1615 2.10742,-13.97851 0.4748,-2.65901 0.89733,-5.04117 1.29687,-7.32227 l 0.10352,0.0234 0.043,-0.1836 -0.11328,-0.0254 c 0.88956,-5.08332 1.57532,-9.25623 2.05078,-12.71093 l 0.0723,0.0156 0.0391,-0.18359 -0.082,-0.0176 c 0.26724,-1.95841 0.48062,-3.74235 0.59961,-5.26367 0.21317,-2.72595 0.18215,-4.80485 -0.1289,-6.4336 -0.31106,-1.62878 -0.90815,-2.81008 -1.81641,-3.70507 -0.91529,-0.90195 -2.44107,-1.67437 -4.44531,-1.85352 v -0.002 c -0.25053,-0.0224 -0.50817,-0.0361 -0.77344,-0.0391 z m -0.002,0.38282 c 0.25571,0.003 0.50338,0.0154 0.74414,0.0371 l 0.002,-0.002 c 1.01791,0.0917 1.88918,0.34755 2.61914,0.68555 -1.84894,1.97164 -3.96354,4.614 -7.72656,11.43555 l -0.002,0.002 -1.04102,2.28516 -0.0508,-0.01 -9.93164,-5.14453 c 3.27408,-3.79827 6.31765,-6.19321 9.01172,-7.58984 2.4333,-1.26149 4.585,-1.72023 6.375,-1.69922 z m 3.5332,0.8125 c 0.56999,0.28488 1.05984,0.61197 1.41992,0.96679 0.84919,0.83679 1.41013,1.933 1.71094,3.50782 0.30085,1.57477 0.33703,3.62595 0.125,6.33398 -0.11777,1.5056 -0.32864,3.273 -0.59375,5.2168 l -11.4082,-2.35547 1.01758,-2.23438 c 3.7792,-6.85086 5.88062,-9.46931 7.72851,-11.43554 z m -19.04687,8.62304 9.99218,5.17774 0.0371,0.008 -5.30273,11.63867 -13.58203,-3.57422 c 3.07388,-5.63287 6.04911,-9.96859 8.85547,-13.25 z m 10.21875,5.22461 11.46093,2.36328 c -0.47395,3.44549 -1.15926,7.61663 -2.04882,12.70118 L 372.8769,839.75 l -0.0234,-0.006 z m -19.16797,8.19727 13.5957,3.57617 -1.61133,3.53711 -0.002,0.004 c -0.97037,2.57663 -1.68197,5.21098 -2.18164,7.89453 l -14.55274,-1.49219 c 0.60801,-3.83608 1.49822,-7.18507 2.72071,-9.63672 0.68137,-1.36645 1.35844,-2.64486 2.03125,-3.88281 z m 13.78125,3.625 0.0566,0.0156 14.70898,3.41211 c -0.40023,2.28556 -0.8228,4.67394 -1.29883,7.33985 -0.10891,0.60994 -0.19134,1.11153 -0.29296,1.6914 l -16.96289,-1.05664 c 0.49765,-2.66605 1.20395,-5.284 2.16796,-7.84375 z m -18.56446,10.08398 14.55079,1.48828 c -0.6407,3.51712 -0.9088,7.11854 -0.81641,10.80079 -0.0249,0.71882 -0.0357,1.41526 -0.0586,2.13086 l -14.55469,0.73828 c -0.11365,-5.39588 0.17467,-10.62096 0.8789,-15.15821 z m 14.74024,1.50391 16.9668,1.05664 c -0.85197,4.87293 -1.4686,8.80851 -1.78907,12.16211 l -16.05078,-0.30664 c 0.0226,-0.71397 0.0318,-1.40779 0.0566,-2.125 v -0.004 -0.002 c -0.0922,-3.67687 0.17569,-7.27237 0.81641,-10.78125 z m -0.87891,13.10156 16.04102,0.30664 c -0.35963,3.86883 -0.35155,7.10746 0.0332,10.55469 l -15.96289,2.0957 c -0.32183,-3.87812 -0.25498,-8.36012 -0.11133,-12.95703 z m -0.18945,0.004 c -0.14519,4.60368 -0.21831,9.09486 0.10742,12.99023 l -13.22266,3.19141 c -0.77163,-4.61201 -1.25849,-9.52634 -1.41601,-14.37109 -0.0117,-0.35985 -0.007,-0.7135 -0.0156,-1.07227 z m 16.28711,11.04687 c 0.23173,2.00882 0.58446,4.09125 1.07617,6.42578 l 0.002,0.0156 0.004,0.0117 c 0.33754,0.92749 1.01871,1.93963 1.94727,3.02734 l -14.07032,7.89649 -0.043,0.0371 c -1.16894,-2.07969 -2.21475,-4.47353 -3.0957,-7.28711 l -0.002,-0.006 -0.004,-0.008 c -0.98514,-2.06748 -1.51228,-4.84789 -1.78711,-8.01953 z m -16.16602,2.13477 c 0.27679,3.16715 0.81109,5.95227 1.80664,8.04687 0.002,0.004 0.002,0.008 0.004,0.0117 0,0 0,0.002 0,0.002 0.88808,2.83343 1.94393,5.24588 3.125,7.34179 l -10.27344,8.73242 c -1.49313,-2.25541 -2.84791,-4.54993 -4.01562,-6.8789 v -0.002 c -1.6642,-3.83846 -2.95005,-8.7435 -3.85156,-14.06641 z"
         style="color:#000000;font-style:normal;font-variant:normal;font-weight:normal;font-stretch:normal;font-size:medium;line-height:normal;font-family:sans-serif;font-variant-ligatures:normal;font-variant-position:normal;font-variant-caps:normal;font-variant-numeric:normal;font-variant-alternates:normal;font-feature-settings:normal;text-indent:0;text-align:start;text-decoration:none;text-decoration-line:none;text-decoration-style:solid;text-decoration-color:#000000;letter-spacing:normal;word-spacing:normal;text-transform:none;writing-mode:lr-tb;direction:ltr;text-orientation:mixed;dominant-baseline:auto;baseline-shift:baseline;text-anchor:start;white-space:normal;shape-padding:0;clip-rule:nonzero;display:inline;overflow:visible;visibility:visible;opacity:1;isolation:auto;mix-blend-mode:normal;color-interpolation:sRGB;color-interpolation-filters:linearRGB;solid-color:#000000;solid-opacity:1;vector-effect:none;fill:#030303;fill-opacity:1;fill-rule:nonzero;stroke:none;stroke-width:0.12941092;stroke-linecap:butt;stroke-linejoin:miter;stroke-miterlimit:4;stroke-dasharray:none;stroke-dashoffset:0;stroke-opacity:1;color-rendering:auto;image-rendering:auto;shape-rendering:auto;text-rendering:auto;enable-background:accumulate"
         inkscape:connector-curvature="0" />
      <path
         sodipodi:nodetypes="ccccsccccccccccccccccccccc"
         inkscape:connector-curvature="0"
         id="path66893"
         d="m 106.30016,253.20323 c -0.29587,0.36658 -0.72073,0.66471 -1.29887,0.88409 l -0.0125,0.005 -0.0131,-0.002 c -2.63855,-0.41198 -3.10545,-2.55867 -4.01104,-4.35199 -0.90558,-1.79333 -1.274354,-3.61253 -1.986298,-4.90503 l -9.41e-4,-8.8e-4 -7.99e-4,-0.002 c -0.172151,-0.36595 -0.317845,-0.67727 -0.472165,-1.0064 l 0.06791,-0.0898 0.0011,8.5e-4 c 0.160607,0.3426 0.313724,0.66997 0.493838,1.05286 l -0.0017,-0.003 c 0.724854,1.31594 1.090695,3.13047 1.988355,4.90812 0.89134,1.76512 1.31387,3.86828 3.88361,4.28812 l -0.93551,-3.15301 0.0472,-0.0172 0.9418,3.17178 c 0.63144,-0.24429 1.06538,-0.57856 1.34488,-0.9955 0.0945,-0.14094 0.17164,-0.29143 0.23297,-0.45077 0.089,-0.23125 0.14425,-0.4824 0.17095,-0.75168 l 0.0924,0.0776 c -0.0299,0.25167 -0.0847,0.48902 -0.1699,0.71028 -0.0639,0.16593 -0.14448,0.32252 -0.24336,0.46954 -0.0371,0.0551 -0.0767,0.10886 -0.1189,0.16124 z"
         style="color:#000000;font-style:normal;font-variant:normal;font-weight:normal;font-stretch:normal;font-size:medium;line-height:normal;font-family:sans-serif;font-variant-ligatures:normal;font-variant-position:normal;font-variant-caps:normal;font-variant-numeric:normal;font-variant-alternates:normal;font-feature-settings:normal;text-indent:0;text-align:start;text-decoration:none;text-decoration-line:none;text-decoration-style:solid;text-decoration-color:#000000;letter-spacing:normal;word-spacing:normal;text-transform:none;writing-mode:lr-tb;direction:ltr;text-orientation:mixed;dominant-baseline:auto;baseline-shift:baseline;text-anchor:start;white-space:normal;shape-padding:0;clip-rule:nonzero;display:inline;overflow:visible;visibility:visible;opacity:1;isolation:auto;mix-blend-mode:normal;color-interpolation:sRGB;color-interpolation-filters:linearRGB;solid-color:#000000;solid-opacity:1;vector-effect:none;fill:#c8c8c8;fill-opacity:1;fill-rule:nonzero;stroke:none;stroke-width:0.03423997;stroke-linecap:butt;stroke-linejoin:miter;stroke-miterlimit:4;stroke-dasharray:none;stroke-dashoffset:0;stroke-opacity:1;color-rendering:auto;image-rendering:auto;shape-rendering:auto;text-rendering:auto;enable-background:accumulate" />
      <path
         sodipodi:nodetypes="ccccccccccccccccccccccccccccccccccc"
         inkscape:connector-curvature="0"
         id="path66895"
         d="m 109.41622,251.76633 c -0.16489,0.21528 -0.42012,0.39691 -0.77622,0.54257 l -0.0123,0.005 -0.0134,-0.002 c -5.28366,-0.68688 -8.06617,-4.78881 -9.57704,-7.37279 l -8.14e-4,-0.002 -3.79e-4,-9.6e-4 c -2.415112,-4.81013 -5.281409,-9.45341 -6.25411,-12.05507 l 4.18e-4,8.2e-4 c 7.58e-4,9.1e-4 0.0017,0.003 0.0027,0.005 0.0062,0.0127 0.01218,0.0256 0.01851,0.0382 l 0.0012,0.003 6.72e-4,0.003 c 0.3049,0.81564 0.644296,1.61557 1.063391,2.42791 0.613404,1.43715 3.713601,6.46122 5.255136,9.53151 l 0.001,8.7e-4 c 3.44e-4,5e-4 1.9e-4,6.4e-4 3.79e-4,9.5e-4 1.494997,2.55518 4.254327,6.63168 9.488117,7.3181 0.33457,-0.13883 0.56871,-0.30651 0.71888,-0.49965 l -4.93964,-3.2076 -0.002,-0.002 c -0.51945,-0.53758 -1.03899,-1.06421 -1.56596,-1.70503 0.0358,0.0168 0.0715,0.0336 0.10736,0.0502 0.50101,0.60087 0.99597,1.1042 1.49227,1.6178 l 4.93761,3.20633 c 0.0243,-0.0343 0.0462,-0.0693 0.0654,-0.10515 l 6e-5,-8e-5 c 0.13846,-0.25818 0.15554,-0.55893 0.0735,-0.90442 -0.16093,-0.67783 -0.70944,-1.51709 -1.43232,-2.45621 0.0431,0.002 0.0862,0.004 0.12937,0.005 0.70064,0.91561 1.23611,1.73567 1.40049,2.42813 0.0858,0.3614 0.0697,0.69126 -0.0825,0.97516 l -7e-5,9e-5 c -0.0286,0.0532 -0.0618,0.10465 -0.0999,0.15436 z"
         style="color:#000000;font-style:normal;font-variant:normal;font-weight:normal;font-stretch:normal;font-size:medium;line-height:normal;font-family:sans-serif;font-variant-ligatures:normal;font-variant-position:normal;font-variant-caps:normal;font-variant-numeric:normal;font-variant-alternates:normal;font-feature-settings:normal;text-indent:0;text-align:start;text-decoration:none;text-decoration-line:none;text-decoration-style:solid;text-decoration-color:#000000;letter-spacing:normal;word-spacing:normal;text-transform:none;writing-mode:lr-tb;direction:ltr;text-orientation:mixed;dominant-baseline:auto;baseline-shift:baseline;text-anchor:start;white-space:normal;shape-padding:0;clip-rule:nonzero;display:inline;overflow:visible;visibility:visible;opacity:1;isolation:auto;mix-blend-mode:normal;color-interpolation:sRGB;color-interpolation-filters:linearRGB;solid-color:#000000;solid-opacity:1;vector-effect:none;fill:#969696;fill-opacity:1;fill-rule:nonzero;stroke:none;stroke-width:0.03423997;stroke-linecap:butt;stroke-linejoin:miter;stroke-miterlimit:4;stroke-dasharray:none;stroke-dashoffset:0;stroke-opacity:1;color-rendering:auto;image-rendering:auto;shape-rendering:auto;text-rendering:auto;enable-background:accumulate" />
      <path
         sodipodi:nodetypes="ccccccccccccccccccc"
         inkscape:connector-curvature="0"
         id="path66897"
         d="m 95.980022,238.82353 c -0.01878,0.0328 -0.03767,0.0654 -0.05668,0.0978 0.872231,1.44028 1.821976,4.25778 3.52915,5.99063 l 0.0036,0.004 0.0035,0.003 c 1.987258,1.37542 4.253278,2.55091 6.579288,3.06801 2.326,0.51708 4.71389,0.37409 6.93235,-0.88998 l 0.0392,-0.0222 -0.0183,-0.0412 c -0.17906,-0.40262 -0.3732,-0.76581 -0.58209,-1.09793 -0.0359,0.007 -0.0722,0.0142 -0.10867,0.0214 0.20114,0.31689 0.38867,0.66297 0.56267,1.04536 l -2.76668,-0.84654 c -0.0558,7.9e-4 -0.11158,8.7e-4 -0.16846,8e-4 l 2.91394,0.89155 c -2.17241,1.21006 -4.50072,1.34818 -6.78163,0.8411 -2.3068,-0.51284 -4.56226,-1.68153 -6.541398,-3.0509 -1.718953,-1.74536 -2.669705,-4.56835 -3.539771,-6.01418 z"
         style="color:#000000;font-style:normal;font-variant:normal;font-weight:normal;font-stretch:normal;font-size:medium;line-height:normal;font-family:sans-serif;font-variant-ligatures:normal;font-variant-position:normal;font-variant-caps:normal;font-variant-numeric:normal;font-variant-alternates:normal;font-feature-settings:normal;text-indent:0;text-align:start;text-decoration:none;text-decoration-line:none;text-decoration-style:solid;text-decoration-color:#000000;letter-spacing:normal;word-spacing:normal;text-transform:none;writing-mode:lr-tb;direction:ltr;text-orientation:mixed;dominant-baseline:auto;baseline-shift:baseline;text-anchor:start;white-space:normal;shape-padding:0;clip-rule:nonzero;display:inline;overflow:visible;visibility:visible;opacity:1;isolation:auto;mix-blend-mode:normal;color-interpolation:sRGB;color-interpolation-filters:linearRGB;solid-color:#000000;solid-opacity:1;vector-effect:none;fill:#646464;fill-opacity:1;fill-rule:nonzero;stroke:none;stroke-width:0.03423997;stroke-linecap:butt;stroke-linejoin:miter;stroke-miterlimit:4;stroke-dasharray:none;stroke-dashoffset:0;stroke-opacity:1;color-rendering:auto;image-rendering:auto;shape-rendering:auto;text-rendering:auto;enable-background:accumulate" />
      <path
         sodipodi:nodetypes="ccccccccccccscccsccccccccccccccccccccccccccccccccccccccccccccccccccccccsccccccccccccccccsccc"
         inkscape:connector-curvature="0"
         id="path66899"
         d="m 102.48189,234.232 c -0.0163,0.0306 -0.0327,0.0611 -0.0492,0.0915 0.63902,0.59154 1.29978,1.08436 2.13534,1.5993 l -2.48626,3.44076 c -0.7743,-0.54551 -2.568675,-2.30714 -3.226828,-2.84458 -0.01252,0.0122 -0.02507,0.0244 -0.03763,0.0366 0.660503,0.53947 2.457518,2.30096 3.233468,2.8473 l -2.470189,2.95838 c -0.07443,-0.0587 -0.149705,-0.11395 -0.223807,-0.17357 -0.879818,-0.70782 -2.303224,-2.30776 -3.07675,-3.09387 -0.604256,-0.86599 -0.604256,-0.86599 -0.09831,0.043 0.783665,0.79866 2.2188,2.41051 3.11198,3.12909 2.175786,1.75047 4.502776,3.12385 6.168606,3.43116 4.39502,0.81079 7.03279,0.45224 8.55635,-0.2791 0.76177,-0.36566 1.24457,-0.82519 1.5255,-1.27744 0.28091,-0.45226 0.35967,-0.89771 0.31452,-1.23469 -0.0451,-0.33435 -0.19924,-0.64874 -0.49412,-0.9736 -0.29488,-0.32486 -0.72969,-0.66214 -1.33996,-1.05065 -0.34059,-0.21684 -0.75138,-0.4552 -1.20798,-0.71021 l 0.009,-0.0196 -0.0454,-0.0218 -0.009,0.0174 c -0.80588,-0.44886 -1.79723,-0.96707 -3.01301,-1.58732 l 0.0127,-0.0284 -0.0457,-0.0201 -0.0115,0.0262 c -0.54593,-0.27842 -1.11645,-0.56843 -1.75429,-0.89106 -1.3952,-0.70572 -2.43637,-1.25549 -3.29091,-1.77832 l 4.3e-4,-5.8e-4 -0.0407,-0.0292 -0.003,0.003 c -0.84176,-0.51799 -1.50331,-1.01293 -2.14519,-1.6099 z m 2.12905,1.7176 c 0.76001,0.46566 1.69004,0.96182 2.85579,1.55676 l -2.47547,3.75446 c -0.84374,-0.42266 -1.64631,-0.9371 -2.40899,-1.54144 l -5.8e-4,-4.4e-4 -5.9e-4,-4.4e-4 c -0.15568,-0.1089 -0.30411,-0.21739 -0.45876,-0.32625 z m 2.90025,1.57972 c 0.1387,0.0708 0.2577,0.13323 0.40389,0.20717 0.63936,0.32341 1.21176,0.61359 1.75866,0.89252 l -1.61832,3.65248 -0.006,0.0139 -1.00992,-0.22302 c -0.6943,-0.20328 -1.36025,-0.47001 -2.00288,-0.78871 z m -5.41926,1.90271 c 0.15476,0.10886 0.30352,0.21722 0.45928,0.32618 0.76378,0.60519 1.56776,1.12155 2.41323,1.54553 l -1.99951,3.31373 c -1.07131,-0.57283 -2.22178,-1.34302 -3.344512,-2.22532 z m 7.62678,-0.78013 c 1.21629,0.62057 2.20706,1.13882 3.01081,1.5866 l -1.32316,2.79887 -3.30721,-0.73072 0.002,-0.006 z m -4.70937,2.67421 c 0.64683,0.3212 1.31714,0.58997 2.01624,0.79465 l 5.9e-4,4.4e-4 1.004,0.22178 -1.40605,3.4441 c -0.36875,-0.0547 -0.74658,-0.11522 -1.14387,-0.18851 -0.71298,-0.13153 -1.56276,-0.4758 -2.47079,-0.95763 z m 7.76429,-1.06353 c 0.45299,0.25305 0.8602,0.48938 1.19717,0.70391 0.60625,0.38597 1.03419,0.71964 1.31931,1.03374 0.28512,0.3141 0.42748,0.60703 0.4693,0.91968 0.0177,0.13239 0.009,0.28781 -0.0212,0.45336 -0.70967,0.078 -1.59748,0.10627 -3.64721,-0.18444 l -0.63452,-0.14024 z m -4.69393,2.09119 3.30451,0.73007 -0.004,0.009 -0.49483,2.93685 c -1.14012,0.0713 -2.53039,0.011 -4.21014,-0.23508 z m 3.35462,0.74127 0.64905,0.1434 5.8e-4,4.5e-4 c 2.04083,0.28944 2.93582,0.26228 3.64678,0.18501 -0.0446,0.20813 -0.12935,0.43315 -0.2719,0.66299 -0.26969,0.43483 -0.73654,0.8821 -1.4837,1.24075 -0.72391,0.34749 -1.71453,0.60985 -3.03863,0.69789 l 0.4918,-2.91764 z"
         style="color:#000000;font-style:normal;font-variant:normal;font-weight:normal;font-stretch:normal;font-size:medium;line-height:normal;font-family:sans-serif;font-variant-ligatures:normal;font-variant-position:normal;font-variant-caps:normal;font-variant-numeric:normal;font-variant-alternates:normal;font-feature-settings:normal;text-indent:0;text-align:start;text-decoration:none;text-decoration-line:none;text-decoration-style:solid;text-decoration-color:#000000;letter-spacing:normal;word-spacing:normal;text-transform:none;writing-mode:lr-tb;direction:ltr;text-orientation:mixed;dominant-baseline:auto;baseline-shift:baseline;text-anchor:start;white-space:normal;shape-padding:0;clip-rule:nonzero;display:inline;overflow:visible;visibility:visible;opacity:1;isolation:auto;mix-blend-mode:normal;color-interpolation:sRGB;color-interpolation-filters:linearRGB;solid-color:#000000;solid-opacity:1;vector-effect:none;fill:#030303;fill-opacity:1;fill-rule:nonzero;stroke:none;stroke-width:0.03423997;stroke-linecap:butt;stroke-linejoin:miter;stroke-miterlimit:4;stroke-dasharray:none;stroke-dashoffset:0;stroke-opacity:1;color-rendering:auto;image-rendering:auto;shape-rendering:auto;text-rendering:auto;enable-background:accumulate" />
    </g>
    <text
       xml:space="preserve"
       style="font-style:normal;font-weight:normal;font-size:10.58333302px;line-height:1.25;font-family:sans-serif;letter-spacing:0px;word-spacing:0px;fill:#000000;fill-opacity:1;stroke:none;stroke-width:0.26458332"
       x="9.6194944"
       y="15.407739"
       id="text66958"><tspan
         sodipodi:role="line"
         id="tspan66956"
         x="9.6194944"
         y="15.407739"
         style="font-style:normal;font-variant:normal;font-weight:normal;font-stretch:normal;font-size:7.05555534px;font-family:Helvetica;-inkscape-font-specification:'Helvetica, Normal';font-variant-ligatures:normal;font-variant-caps:normal;font-variant-numeric:normal;font-feature-settings:normal;text-align:start;writing-mode:lr-tb;text-anchor:start;stroke-width:0.26458332">A</tspan></text>
    <text
       id="text66962"
       y="15.407739"
       x="79.389557"
       style="font-style:normal;font-weight:normal;font-size:10.58333302px;line-height:1.25;font-family:sans-serif;letter-spacing:0px;word-spacing:0px;fill:#000000;fill-opacity:1;stroke:none;stroke-width:0.26458332"
       xml:space="preserve"><tspan
         style="font-style:normal;font-variant:normal;font-weight:normal;font-stretch:normal;font-size:7.05555534px;font-family:Helvetica;-inkscape-font-specification:'Helvetica, Normal';font-variant-ligatures:normal;font-variant-caps:normal;font-variant-numeric:normal;font-feature-settings:normal;text-align:start;writing-mode:lr-tb;text-anchor:start;stroke-width:0.26458332"
         y="15.407739"
         x="79.389557"
         id="tspan66960"
         sodipodi:role="line">B</tspan></text>
    <text
       xml:space="preserve"
       style="font-style:normal;font-weight:normal;font-size:10.58333302px;line-height:1.25;font-family:sans-serif;letter-spacing:0px;word-spacing:0px;fill:#000000;fill-opacity:1;stroke:none;stroke-width:0.26458332"
       x="149.18718"
       y="15.407739"
       id="text66966"><tspan
         sodipodi:role="line"
         id="tspan66964"
         x="149.18718"
         y="15.407739"
         style="font-style:normal;font-variant:normal;font-weight:normal;font-stretch:normal;font-size:7.05555534px;font-family:Helvetica;-inkscape-font-specification:'Helvetica, Normal';font-variant-ligatures:normal;font-variant-caps:normal;font-variant-numeric:normal;font-feature-settings:normal;text-align:start;writing-mode:lr-tb;text-anchor:start;stroke-width:0.26458332">C</tspan></text>
  </g>
</svg>
